<svg xmlns="http://www.w3.org/2000/svg" width="27" height="9" viewBox="0 0 27 9" fill="none">
<rect width="27" height="9" fill="none"/>
<path d="M13.5001 9C12.8807 9 12.2983 8.88352 11.7529 8.65057C11.2103 8.41761 10.7316 8.09517 10.3168 7.68324C9.90488 7.26847 9.58102 6.78977 9.34522 6.24716C9.11227 5.70455 8.99721 5.12216 9.00005 4.5C9.00289 3.87784 9.12079 3.29545 9.35374 2.75284C9.58954 2.21023 9.9134 1.73295 10.3253 1.32102C10.7373 0.90625 11.2145 0.582386 11.7572 0.349432C12.2998 0.116477 12.8807 0 13.5001 0C14.1222 0 14.7046 0.116477 15.2472 0.349432C15.7927 0.582386 16.2699 0.90625 16.679 1.32102C17.091 1.73295 17.4134 2.21023 17.6464 2.75284C17.8793 3.29545 17.9972 3.87784 18.0001 4.5C18.0029 5.12216 17.8878 5.70455 17.6549 6.24716C17.4219 6.78977 17.0995 7.26847 16.6876 7.68324C16.2756 8.09517 15.7969 8.41761 15.2515 8.65057C14.706 8.88352 14.1222 9 13.5001 9Z" fill="#FACCF9"/>
</svg>