<svg width="258" height="258" viewBox="0 0 258 258" fill="none" xmlns="http://www.w3.org/2000/svg">
<path d="M53.2784 129C53.2784 87.18 87.18 53.2784 129 53.2784C170.819 53.2784 204.721 87.18 204.721 129C204.721 170.819 170.819 204.721 129 204.721C87.18 204.721 53.2784 170.819 53.2784 129ZM138.585 196.103C138.749 196.103 138.92 196.103 139.112 196.11C139.248 196.089 139.391 196.06 139.533 196.039C139.975 195.968 140.032 195.939 140.039 195.497C140.046 194.955 140.011 194.406 139.94 193.864C139.833 193.08 139.626 192.303 139.555 191.511C139.391 189.693 139.633 187.896 139.89 186.099C139.897 186.041 139.906 185.982 139.914 185.922C139.979 185.452 140.044 184.978 140.025 184.509C139.982 183.689 139.804 182.883 139.776 182.07C139.726 180.751 139.925 179.454 140.432 178.213C140.546 177.935 140.681 177.806 140.995 177.828C141.132 177.841 141.272 177.813 141.414 177.785C141.5 177.768 141.586 177.75 141.672 177.742C141.697 177.74 141.721 177.737 141.746 177.734C141.937 177.715 142.132 177.695 142.321 177.714C142.642 177.742 142.777 177.899 142.763 178.227C142.742 178.726 142.713 179.218 142.678 179.717C142.592 180.908 142.507 182.099 142.777 183.276C142.984 184.153 142.97 185.001 142.499 185.8C142.464 185.857 142.442 185.928 142.421 185.999C142.307 186.356 142.335 186.698 142.585 186.991C142.87 187.319 142.963 187.696 142.906 188.117C142.827 188.666 142.934 189.18 143.163 189.686C143.262 189.914 143.284 190.221 143.22 190.463C142.842 191.868 142.892 193.272 143.163 194.677C143.212 194.934 143.305 195.176 143.384 195.419C143.426 195.412 143.469 195.412 143.512 195.404C143.783 192.631 144.061 189.864 144.332 187.09C144.346 186.998 144.339 186.876 144.289 186.798C143.811 186.049 143.904 185.272 144.261 184.545C144.46 184.131 144.475 183.739 144.446 183.318C144.441 183.252 144.436 183.185 144.43 183.119C144.411 182.885 144.392 182.653 144.403 182.42C144.46 180.873 144.524 179.332 144.603 177.792C144.639 177.229 144.71 176.666 144.774 176.045C145.43 176.095 146.043 176.145 146.664 176.188C147.669 176.266 148.682 176.33 149.694 176.409C149.994 176.437 150.129 176.309 150.179 176.002C150.471 174.17 150.5 172.33 150.186 170.498C150.108 170.027 150.2 169.642 150.407 169.314C150.3 169.072 150.165 168.872 150.136 168.658C150.065 168.159 150.015 167.653 150.001 167.146C149.965 165.521 149.972 163.895 149.929 162.269C149.901 161.335 149.851 160.408 149.737 159.481C149.658 158.832 149.43 158.212 149.316 157.57C148.575 153.499 148.254 149.377 147.819 145.27C147.612 143.316 147.341 141.37 146.878 139.452C146.85 139.338 146.821 139.225 146.793 139.112C146.629 138.463 146.464 137.814 146.507 137.134C146.592 135.708 146.656 134.282 146.763 132.856C146.813 132.221 146.963 131.608 147.484 131.159C147.534 131.116 147.541 131.016 147.562 130.938C147.705 130.382 147.755 129.776 148.004 129.269C148.539 128.157 149.166 127.08 149.78 126.004C150.264 125.141 150.764 124.285 150.949 123.308C151.113 122.424 151.191 121.526 151.248 120.627C151.462 117.169 151.063 113.761 150.443 110.366C150.272 109.44 149.994 108.534 149.844 107.607C149.765 107.122 149.715 106.666 149.487 106.217C149.081 105.425 148.739 104.605 148.346 103.806C148.275 103.65 148.125 103.514 147.976 103.414C146.992 102.765 145.993 102.131 145.002 101.489C142.414 99.8062 139.818 98.1448 137.016 96.8257C136.895 96.7687 136.802 96.6688 136.709 96.569C136.068 95.8916 135.469 95.1786 134.791 94.5368C133.686 93.4886 132.545 92.4832 131.397 91.4921C130.848 91.0215 130.599 90.4796 130.741 89.7665C130.763 89.681 130.756 89.6025 130.763 89.517C130.818 88.7805 130.633 88.0827 130.447 87.3835C130.393 87.1824 130.34 86.9812 130.292 86.7789C130.157 86.2084 130 85.6451 129.85 85.0818C130.142 84.9891 130.406 84.925 130.656 84.8323C131.034 84.6897 131.347 84.4543 131.54 84.0907C131.768 83.67 131.768 83.5559 131.369 83.3063C130.813 82.9641 130.235 82.6575 129.65 82.3723C129.258 82.1797 128.952 81.9587 128.93 81.4738C128.923 81.3383 128.852 81.1957 128.809 81.0602C128.645 80.5682 128.474 80.0762 128.324 79.5842C128.296 79.4987 128.331 79.3204 128.395 79.2847C128.766 79.0637 129.151 78.8712 129.529 78.6715C129.579 78.643 129.629 78.6073 129.665 78.5574C130.371 77.6091 131.276 76.8675 132.196 76.1402C132.267 76.0832 132.36 75.9905 132.367 75.9049C132.388 75.6268 132.56 75.47 132.759 75.306C132.888 75.1919 133.094 75.0564 133.101 74.928C133.123 74.5145 133.444 74.3719 133.693 74.1579C133.907 73.9797 134.135 73.8014 134.299 73.5804C135.012 72.6178 135.711 71.6409 136.41 70.664C136.46 70.5927 136.488 70.4715 136.474 70.3788C136.374 69.6657 136.51 69.0026 136.802 68.3537C136.845 68.2539 136.816 68.1042 136.788 67.983C136.695 67.6193 136.517 67.2557 136.496 66.8849C136.431 65.744 136.132 64.6887 135.462 63.7475C135.226 63.4195 135.048 63.0487 134.827 62.7135C134.77 62.628 134.649 62.5495 134.542 62.521C134.043 62.3927 133.536 62.2786 133.03 62.1716C130.67 61.6654 128.296 61.2589 125.864 61.2661C124.452 61.2661 123.062 61.3374 121.707 61.8365C120.63 62.2358 119.518 62.5282 118.434 62.8989C117.8 63.1129 117.136 63.3054 116.566 63.6405C114.519 64.8527 112.509 66.1362 110.462 67.3484C108.958 68.2397 107.403 69.0454 105.899 69.9367C105.271 70.3075 104.572 70.6997 104.159 71.263C103.389 72.3254 102.141 72.7747 101.314 73.7301C99.5098 74.9708 97.7058 76.1973 95.9232 77.4665C95.3671 77.8587 94.8893 78.3578 94.3973 78.8284C94.0194 79.1921 93.6985 79.6199 93.3206 79.9836C93.0782 80.2117 92.8571 80.4256 92.9498 80.7964C91.9872 81.1886 91.6236 81.9658 91.5879 82.9213C91.5309 84.3046 91.9302 85.5739 92.6361 86.7575C92.907 87.2067 93.2778 87.5205 93.7627 87.7344C94.7467 88.1622 95.7806 88.2763 96.8288 88.2763C99.7238 88.2691 102.44 87.4135 105.143 86.515C105.435 86.4152 105.649 86.4295 105.877 86.6078C106.006 86.7147 106.148 86.8074 106.248 86.9357C106.541 87.3065 106.797 87.7201 107.104 88.0766C107.496 88.533 107.582 89.0392 107.603 89.6311C107.653 91.2853 107.788 92.9396 107.895 94.5939C107.902 94.6153 107.917 94.6367 107.931 94.6581C108.18 94.7008 108.437 94.7294 108.687 94.8007C108.943 94.872 109.193 94.9647 109.428 95.0859C109.614 95.1857 109.649 95.3782 109.471 95.5208C109.229 95.7205 108.965 95.9059 108.708 96.0913C108.444 96.2909 108.159 96.4621 107.917 96.6831C107.824 96.7615 107.767 96.9469 107.788 97.0682C107.874 97.5245 108.081 97.9666 108.516 98.1663C108.901 98.3445 109.336 98.4301 109.756 98.5014C109.97 98.537 110.084 98.587 110.091 98.8009C110.106 99.4569 110.127 100.12 110.127 100.783C110.127 100.847 110.006 100.933 109.927 100.961C109.378 101.168 108.808 101.346 108.266 101.568C106.469 102.309 104.879 103.35 103.631 104.862C103.567 104.94 103.496 105.033 103.489 105.126C103.467 105.653 103.211 106.067 102.883 106.452C102.569 106.816 102.241 107.158 101.941 107.529C101.563 107.985 101.357 108.498 101.471 109.112C101.578 109.682 101.449 110.231 101.171 110.73C100.815 111.372 100.444 112.007 100.066 112.634C100.03 112.698 99.902 112.769 99.8236 112.755C99.2817 112.677 98.7469 112.584 98.2121 112.484C97.7629 112.399 97.3279 112.249 96.8787 112.22C96.5436 112.199 96.3011 112.085 96.0516 111.878C95.8804 111.728 95.6523 111.586 95.4383 111.564C94.8822 111.515 94.4044 111.322 93.9552 110.994C93.5844 110.73 93.2065 110.445 92.7858 110.309C92.1298 110.088 91.5594 109.768 91.0959 109.261C90.4684 108.57 89.6983 108.113 88.8498 107.742C88.372 107.529 87.8872 107.3 87.4593 107.001C87.1313 106.773 86.9245 106.366 86.5894 106.138C86.2472 105.91 85.7979 105.839 85.4343 105.632C85.0065 105.382 84.6143 105.061 84.2078 104.783C83.8085 104.505 83.3736 104.327 82.8745 104.341C82.5251 104.348 82.3183 104.534 82.3539 104.883C82.3753 105.09 82.4538 105.304 82.5679 105.482C82.7818 105.817 83.0313 106.145 83.2809 106.459C83.9797 107.329 84.7997 108.042 85.8764 108.413C85.9477 108.441 86.0475 108.477 86.076 108.541C86.4183 109.276 87.1171 109.632 87.7018 110.124C88.3792 110.702 89.1421 111.094 89.9408 111.465C91.0103 111.957 91.3241 112.62 91.2028 113.796L91.1992 113.833C91.1432 114.406 91.0866 114.985 91.3169 115.543C91.3454 115.614 91.2884 115.729 91.2456 115.807C91.0816 116.099 90.882 116.363 90.7465 116.663C90.3971 117.461 90.3828 118.31 90.4399 119.165C90.5255 120.335 90.8035 121.412 91.8517 122.125C91.9088 122.16 91.9587 122.217 92.0157 122.26L95.2886 124.677C95.3884 124.749 95.5025 124.834 95.5381 124.941C95.7521 125.533 95.9375 126.132 96.1442 126.731C96.1942 126.881 96.2583 127.045 96.3653 127.152C96.9001 127.686 97.4562 128.2 97.991 128.735C98.3903 129.134 98.7041 129.576 98.5187 130.189C98.5106 130.218 98.5117 130.248 98.5128 130.279C98.5138 130.302 98.5146 130.325 98.5116 130.346C98.3975 131.558 98.3904 132.799 97.6987 133.854C97.7218 133.889 97.7502 133.923 97.7778 133.955C97.8351 134.025 97.8889 134.089 97.8841 134.147C97.8747 134.306 97.8866 134.47 97.8986 134.634C97.9318 135.091 97.9651 135.549 97.5347 135.922C97.3493 136.086 97.2709 136.328 97.499 136.55C98.1051 137.149 98.2406 137.869 98.0338 138.667C97.877 139.273 97.6559 139.858 97.5418 140.464C97.3136 141.719 96.843 142.881 96.3582 144.051C95.8519 145.27 95.4098 146.518 94.9463 147.759C94.7681 148.229 94.654 148.728 94.4472 149.185C94.0122 150.169 93.4989 151.124 93.0924 152.115C92.6646 153.171 92.2439 154.247 91.9515 155.353C91.7162 156.251 91.5522 157.164 91.1957 158.034C91.046 158.397 90.9961 158.818 91.0032 159.21C91.0103 159.681 90.939 160.109 90.7465 160.536C90.611 160.836 90.4969 161.15 90.4328 161.471C90.1689 162.861 90.3614 164.223 90.7465 165.578C90.882 166.041 91.0388 166.383 91.6022 166.291C91.6287 166.286 91.6606 166.296 91.6931 166.305C91.713 166.311 91.7329 166.316 91.7519 166.319C92.5505 166.483 93.3491 166.662 94.1549 166.811C94.7324 166.918 95.3171 166.947 95.8163 166.797C95.9731 164.986 96.0729 163.232 96.2869 161.485C96.6576 158.419 97.4634 155.46 98.6399 152.6C98.754 152.308 98.8182 151.987 98.8253 151.673C98.8324 151.302 98.8752 150.967 99.0678 150.639C99.2318 150.354 99.3458 150.033 99.4385 149.72C99.7024 148.842 99.9234 147.965 100.202 147.096C100.323 146.718 100.472 146.311 100.729 146.026C101.136 145.577 101.392 145.12 101.321 144.5C101.3 144.265 101.385 144.065 101.599 143.915C101.713 143.83 101.813 143.68 101.856 143.545C101.948 143.274 101.984 142.981 102.07 142.703C102.134 142.489 102.191 142.233 102.341 142.09C102.533 141.905 102.562 141.726 102.555 141.491C102.533 140.97 102.647 140.5 103.104 140.158C104.059 140.999 105.228 141.47 106.369 141.983C106.847 142.197 107.353 142.382 107.795 142.66C108.352 143.003 108.915 143.131 109.557 143.081C110.106 143.038 110.106 143.117 110.084 143.659C110.027 144.914 110.027 146.169 109.97 147.416C109.935 148.122 109.878 148.835 109.742 149.534L109.74 149.543C109.655 149.982 109.572 150.414 109.692 150.846C109.885 151.531 109.913 152.194 109.678 152.885C109.585 153.149 109.614 153.484 109.678 153.77C109.828 154.397 110.049 155.017 110.213 155.645C110.228 155.707 110.245 155.769 110.262 155.832C110.345 156.139 110.43 156.456 110.412 156.764C110.391 157.264 110.448 157.734 110.626 158.191C110.833 158.711 110.876 159.239 110.783 159.781C110.633 160.672 110.641 161.549 110.961 162.412C111.018 162.576 111.054 162.754 111.076 162.925C111.182 163.923 111.268 164.922 111.382 165.92C111.496 166.961 111.575 168.002 112.131 168.936C112.316 169.257 112.281 169.606 112.216 169.963C112.166 170.234 112.117 170.512 112.109 170.79C112.102 170.897 112.202 171.047 112.295 171.097C113.072 171.539 113.678 172.152 114.035 172.951C114.441 173.849 114.79 174.783 115.097 175.724C115.625 177.357 115.96 179.054 117.022 180.445C116.701 180.844 116.402 181.236 116.088 181.621C115.924 181.814 115.867 182.013 115.896 182.27C115.924 182.52 115.91 182.791 115.86 183.04C115.632 184.202 115.525 185.372 115.489 186.556C115.468 187.29 115.404 188.024 115.361 188.759C115.318 189.443 115.14 190.078 114.798 190.677C114.577 191.062 114.555 191.461 114.89 191.796C115.318 192.231 115.853 192.331 116.438 192.203C116.53 192.181 116.623 192.11 116.68 192.032C116.701 192.002 116.722 191.971 116.743 191.941C117.024 191.538 117.304 191.135 117.158 190.584C117.123 190.444 117.131 190.283 117.139 190.128C117.141 190.094 117.142 190.061 117.144 190.028C117.201 187.618 117.258 185.208 117.308 182.791C117.308 182.534 117.4 182.413 117.621 182.299C118.62 181.785 119.696 181.614 120.801 181.564C122.064 181.507 123.326 181.507 124.588 181.422C125.629 181.35 126.627 181.115 127.454 180.388C127.682 180.188 128.018 180.081 128.317 180.003C128.716 179.896 129.137 179.874 129.536 179.774C132.125 179.111 134.67 178.327 137.159 177.35C137.465 177.229 137.815 177.158 138.15 177.15C138.749 177.143 139.013 177.535 138.913 178.113C138.749 179.04 138.578 179.967 138.464 180.901C138.121 183.596 138.071 186.313 137.95 189.023C137.85 191.205 137.701 193.387 137.558 195.568C137.544 195.768 137.601 195.868 137.772 195.911C138.043 195.982 138.314 196.039 138.585 196.103ZM96.8501 86.8288C96.187 86.7718 95.5453 86.7219 94.9106 86.6648C94.8037 86.6506 94.6682 86.6149 94.604 86.5436C94.1548 86.0017 93.6628 85.4812 93.2991 84.8893C92.8 84.0836 92.8071 83.228 93.3063 82.3866C93.6129 81.8732 93.8696 81.3313 94.1477 80.8036C94.1762 80.7608 94.219 80.7252 94.2546 80.6895C95.531 79.6199 96.8073 78.5433 98.0979 77.4879C98.6256 77.053 99.1533 76.5752 99.7593 76.2971C101.143 75.6697 102.198 74.593 103.467 73.8229C103.838 73.5947 104.252 73.4378 104.629 73.231C104.829 73.1241 105.007 72.9815 105.186 72.846C106.02 72.2328 106.826 71.5768 107.688 71.0135C108.131 70.7283 108.558 70.443 108.965 70.1079C109.599 69.5802 110.291 69.1168 110.983 68.6675C111.788 68.1399 112.616 67.655 113.443 67.1559C113.55 67.0917 113.692 67.0561 113.821 67.0489C113.923 67.0404 114.027 67.0471 114.134 67.054C114.205 67.0586 114.276 67.0632 114.348 67.0632C114.669 67.0703 114.869 66.9562 115.068 66.6568C115.404 66.1647 115.86 65.7655 116.273 65.3305C116.295 65.3091 116.331 65.302 116.359 65.2948C117.643 64.8456 118.933 64.3964 120.224 63.9615C120.48 63.8759 120.759 63.7832 121.03 63.7618C121.735 63.6976 122.37 63.4481 122.998 63.1414C123.283 62.9988 123.632 62.8847 123.946 62.9061C125.051 62.9846 126.128 62.8063 127.212 62.6138C128.481 62.3856 129.729 62.6138 130.969 62.8776C132.353 63.17 133.508 63.9115 134.634 64.7102C134.699 64.7601 134.749 64.8528 134.77 64.9383C134.913 65.4232 134.991 65.9366 135.198 66.3929C135.868 67.869 135.519 69.181 134.592 70.4003C134.036 71.1347 133.422 71.8335 132.895 72.5822C132.51 73.1312 132.075 73.6161 131.576 74.0725C130.962 74.6215 130.456 75.2918 129.928 75.9264C129.294 76.6965 128.695 77.4951 127.868 78.0726C127.835 78.0968 127.803 78.1237 127.77 78.1508C127.611 78.2836 127.443 78.4228 127.183 78.2866C126.869 78.1297 126.734 77.8659 126.713 77.5379C126.698 77.3026 126.691 77.0601 126.698 76.8248C126.734 76.1118 126.484 75.5128 126.014 74.9852C125.664 74.5858 125.315 74.1937 124.958 73.8015C124.909 73.7516 124.844 73.7017 124.78 73.6874C123.803 73.4521 122.834 73.1812 121.85 72.9958C120.224 72.6892 118.605 72.8817 117.015 73.2739C115.917 73.5448 114.84 73.8799 113.756 74.1866C113.657 74.2079 113.557 74.2507 113.471 74.3078C110.883 75.9692 108.273 77.6092 105.856 79.513C105.528 79.7697 105.221 80.0478 104.886 80.2902C104.665 80.4471 104.651 80.604 104.772 80.8108C105.022 81.2528 105.243 81.7092 105.528 82.1299C105.941 82.736 106.07 83.3278 105.692 84.0052C105.521 84.3189 105.506 84.7682 105.271 84.9892C105.036 85.2103 104.608 85.2316 104.259 85.3315C102.512 85.8306 100.772 86.3868 98.9607 86.6221C98.2548 86.7148 97.5418 86.7646 96.8501 86.8288ZM125.657 78.4862C125.108 78.4078 124.559 78.3222 124.017 78.2437C121.243 77.8872 118.47 77.7731 115.703 78.3293C114.448 78.5789 113.243 78.9782 112.131 79.6271C111.803 79.8196 111.503 80.0691 111.182 80.2759C110.655 80.6182 110.134 80.9819 109.585 81.2885C108.672 81.7947 107.738 82.2582 106.776 82.7573C106.448 82.1798 106.127 81.6164 105.813 81.0531C105.706 80.8606 105.763 80.718 105.927 80.5683C106.861 79.734 107.909 79.078 109.036 78.5432C109.293 78.422 109.542 78.2651 109.756 78.0797C110.605 77.3667 111.589 76.8747 112.58 76.4041C113.578 75.9335 114.562 75.4272 115.582 74.9922C115.995 74.814 116.48 74.7712 116.937 74.707C119.054 74.4076 121.179 74.3363 123.304 74.7284C123.418 74.7498 123.525 74.7783 123.639 74.7997C124.395 74.9352 125.008 75.142 125.179 76.0761C125.23 76.3479 125.325 76.6119 125.42 76.8773C125.565 77.2804 125.711 77.6869 125.707 78.1297C125.707 78.2152 125.707 78.2937 125.7 78.3792C125.7 78.4077 125.679 78.4363 125.657 78.4862ZM119.133 100.17C119.482 99.9275 119.782 99.6779 120.11 99.4854C120.766 99.1003 121.436 98.7581 122.092 98.3873C122.406 98.2162 122.613 97.9809 122.684 97.5816C122.741 97.3035 123.012 97.0539 123.226 96.8257C123.375 96.6689 123.454 96.5476 123.347 96.348C123.211 96.0984 123.09 95.8346 122.926 95.5993C122.869 95.5137 122.662 95.4282 122.591 95.4638C122.47 95.5351 122.342 95.6849 122.313 95.8275C122.277 96.02 122.313 96.241 122.349 96.4407C122.391 96.6546 122.349 96.783 122.156 96.9042C120.538 97.8882 118.919 98.8793 117.307 99.8705C117.079 100.006 116.865 99.956 116.673 99.8134C116.438 99.6351 116.259 99.6637 116.024 99.8633C115.653 100.17 115.232 100.412 114.79 100.705C114.812 100.747 114.84 100.862 114.912 100.933C115.097 101.111 115.019 101.232 114.833 101.311C113.942 101.689 113.029 101.931 112.052 101.774C111.931 101.753 111.81 101.71 111.696 101.66C111.261 101.482 111.161 101.332 111.225 100.862C111.339 100.049 111.453 99.2359 111.61 98.4372C111.632 98.3018 111.86 98.2019 112.002 98.095C112.067 98.0522 112.152 98.0237 112.231 98.0023C112.787 97.8383 112.922 97.6671 112.936 97.0753V96.8971C113.122 96.8828 113.293 96.8757 113.464 96.8543C113.956 96.783 114.384 96.5619 114.783 96.2696C115.14 95.9986 115.546 95.7847 115.853 95.471C116.031 95.2998 116.06 94.979 116.138 94.7223C116.157 94.651 116.157 94.5733 116.157 94.4873C116.157 94.4442 116.157 94.3991 116.159 94.3515C116.537 94.5012 116.887 94.651 117.25 94.7651C117.685 94.9006 117.971 94.8078 118.227 94.4656C118.021 94.0805 117.914 94.0377 117.051 93.9308C116.972 93.4602 116.894 93.011 116.815 92.5617C116.751 92.1981 116.83 92.0697 117.208 92.0198C117.507 91.9771 117.807 91.9842 118.106 91.9699C118.149 91.9628 118.185 91.9485 118.284 91.9271C118.256 91.5991 118.27 91.2497 118.185 90.9289C118.142 90.7649 117.949 90.5866 117.785 90.5224C117.471 90.3941 117.286 90.6009 117.365 90.9289C117.407 91.1143 117.45 91.3068 117.493 91.5136C117.051 91.5991 116.744 91.4137 116.48 91.1642C116.266 90.9645 116.088 90.8718 115.789 91.0501C115.589 91.1713 115.311 91.1927 115.069 91.207C114.911 91.2141 114.754 91.2051 114.597 91.1962C114.442 91.1873 114.287 91.1784 114.134 91.1856C113.657 91.1998 113.257 91.1 112.958 90.6722C112.78 90.4226 112.473 90.4226 112.159 90.4868C112.323 90.9289 112.487 91.371 112.131 91.7774C111.903 92.0413 111.589 92.1054 111.232 92.0769C111.232 92.0436 111.233 92.0104 111.234 91.9771C111.235 91.9106 111.237 91.844 111.232 91.7774C111.204 91.4352 110.904 91.2141 110.605 91.3211C110.512 91.3567 110.391 91.4566 110.384 91.535C110.37 91.6348 110.434 91.7632 110.505 91.8559C110.562 91.9201 110.669 91.9415 110.747 91.9914C110.968 92.134 110.976 92.2766 110.79 92.4548C110.441 92.7971 110.106 93.1465 109.742 93.4745C109.642 93.5672 109.421 93.667 109.357 93.6242C109.222 93.5315 109.072 93.339 109.072 93.1893C109.079 92.8185 109.129 92.4406 109.236 92.0912C109.357 91.6919 109.286 91.4067 108.929 91.1927C108.708 91.0573 108.644 90.8647 108.701 90.608C108.829 89.9806 108.915 89.3388 109.065 88.7185C109.143 88.3905 109.286 88.0696 109.45 87.7773C109.557 87.5847 109.578 87.4279 109.514 87.2282C109.243 86.3868 108.615 85.9875 107.788 85.8734C107.496 85.8378 107.403 85.7451 107.482 85.467C107.546 85.2459 107.61 85.0249 107.639 84.8038C107.644 84.7639 107.649 84.7231 107.655 84.6817C107.683 84.4871 107.713 84.2816 107.66 84.1051C107.582 83.8341 107.688 83.7129 107.881 83.6131L109.614 82.7146C109.863 82.5863 110.106 82.4651 110.156 82.1299C110.17 82.0515 110.298 81.9588 110.391 81.916C111.368 81.4597 112.338 80.9962 113.115 80.2261C113.557 79.784 114.149 79.6699 114.733 79.5986C115.439 79.513 116.159 79.4916 116.872 79.456C116.972 79.456 117.115 79.4988 117.172 79.5701C117.564 80.0407 117.942 80.5184 118.313 81.0033C118.342 81.0388 118.333 81.1086 118.324 81.168C118.323 81.1802 118.321 81.192 118.32 81.203C118.299 81.4668 118.249 81.7377 118.249 82.0016C118.249 82.572 118.505 82.9642 119.054 83.121C119.561 83.2708 120.088 83.3278 120.602 83.4419C120.894 83.5061 121.186 83.5917 121.457 83.7057C121.75 83.827 121.964 84.048 122.042 84.3831C122.056 84.4331 122.071 84.4901 122.099 84.5258C122.384 84.8609 122.406 85.196 122.249 85.6096C122.149 85.8663 122.37 86.0945 122.613 86.2299C123.047 86.4795 123.525 86.5009 123.996 86.3654C124.138 86.3226 124.274 86.123 124.331 85.9661C124.431 85.7023 124.431 85.4099 124.531 85.1532C124.581 85.0106 124.73 84.8395 124.866 84.811C125.258 84.7397 125.657 84.7325 126.057 84.6969C126.114 85.032 125.942 85.1604 125.743 85.2602C125.03 85.6238 124.994 85.7023 125.279 86.4653C125.408 86.8004 125.329 87.0642 125.051 87.2924C125.308 87.5419 125.607 87.5776 125.9 87.5277C126.014 87.5063 126.164 87.328 126.185 87.2068C126.27 86.7005 126.477 86.3725 127.019 86.2371C127.354 86.1515 127.34 85.7807 127.319 85.4456C127.682 85.5454 127.896 85.3957 128.103 85.1318C128.196 85.0035 128.41 84.9678 128.566 84.8894C128.631 85.0463 128.716 85.196 128.752 85.3529C128.772 85.4487 128.768 85.5516 128.763 85.6491C128.761 85.6894 128.759 85.7289 128.759 85.7664C128.395 85.8306 128.06 85.8805 127.711 85.9376C127.775 86.1871 127.846 86.4011 127.882 86.6221C127.996 87.3993 127.697 88.0197 127.133 88.5331C126.57 89.0465 125.893 89.3459 125.18 89.5527C125.087 90.223 125.172 90.3371 125.807 90.4583C126.392 90.5724 126.941 90.4512 127.376 90.059C127.775 89.7024 128.11 89.2746 128.46 88.8682C128.659 88.6258 128.83 88.3477 129.08 87.9983C129.18 88.2764 129.258 88.4689 129.315 88.6685C129.401 88.9538 129.365 89.3031 129.757 89.4244C129.8 89.4386 129.829 89.5598 129.836 89.6383C129.928 90.3585 129.743 90.9931 129.201 91.4993C129.073 91.6277 129.037 91.7489 129.03 91.9272C129.009 92.3336 128.923 92.7401 128.859 93.1465C128.849 93.2069 128.833 93.2673 128.818 93.3277C128.79 93.4384 128.762 93.5492 128.766 93.6599C128.78 93.9308 128.652 94.0663 128.438 94.159C128.246 94.2374 128.053 94.3373 127.853 94.3658C127.497 94.4157 127.247 94.6082 127.026 94.8649C126.156 95.8917 125.301 96.9256 124.417 97.9453C123.782 98.6797 123.026 99.2716 122.156 99.7208C121.992 99.8064 121.857 100.035 121.807 100.22C121.693 100.648 121.443 100.819 121.008 100.819C120.331 100.826 119.696 100.719 119.133 100.17ZM115.817 84.2334C115.867 83.4633 115.518 82.9641 114.819 82.9142C113.785 82.8358 112.922 83.2351 112.238 84.0123C112.181 84.0765 112.138 84.1763 112.138 84.2619C112.145 84.6255 112.744 85.0462 113.093 84.9464C113.359 84.8686 113.618 84.7728 113.878 84.6769C114.501 84.4478 115.123 84.2182 115.817 84.2334ZM115.833 88.0431C115.878 87.8723 115.976 87.7154 116.174 87.3993C116.238 87.2995 116.309 87.1996 116.316 87.0927C116.323 86.9857 116.288 86.8146 116.209 86.7718C115.261 86.2299 114.263 86.1158 113.25 86.5793C112.794 86.7861 112.608 87.1782 112.587 87.6845C112.573 88.1694 112.915 88.3476 113.25 88.5188C114.063 88.9323 114.926 88.8896 115.81 88.7541C115.796 88.3932 115.789 88.2114 115.833 88.0431ZM130.285 92.0056C131.882 93.4958 133.65 94.8364 134.97 96.6261C135.098 96.8044 135.126 96.9541 135.048 97.1609C134.121 99.5639 133.194 101.967 132.281 104.37C131.961 105.197 131.661 106.031 131.369 106.873C131.297 107.087 131.205 107.158 130.991 107.094C130.513 106.951 130.021 106.823 129.543 106.659C129.201 106.545 128.894 106.331 128.545 106.245C128.11 106.138 127.967 105.853 127.889 105.461C127.711 104.534 127.525 103.614 127.326 102.694C127.276 102.452 127.205 102.202 127.069 102.003C126.891 101.739 126.948 101.525 127.055 101.261C127.868 99.2502 128.702 97.2465 129.444 95.2072C129.814 94.1804 130.007 93.0965 130.285 92.0056ZM115.86 92.8256C115.054 93.5885 114.248 94.3515 113.407 95.1501C113.136 94.9433 112.872 94.7223 112.58 94.5298C112.216 94.2945 111.846 94.0734 111.468 93.8666C111.275 93.7597 111.225 93.6028 111.396 93.4673C111.482 93.4031 111.596 93.3746 111.703 93.3318C112.116 93.175 112.544 93.0466 112.944 92.8612C113.692 92.519 114.455 92.2837 115.282 92.519C115.461 92.5689 115.632 92.6473 115.803 92.7115C115.817 92.7543 115.839 92.7899 115.86 92.8256ZM127.575 96.7402C127.504 97.0682 127.468 97.3534 127.383 97.6244C127.105 98.3802 126.791 99.1218 126.213 99.7207C126.156 99.7707 126.142 99.899 126.164 99.9846C126.256 100.37 126.171 100.683 125.871 100.961C125.172 101.603 124.609 102.33 124.388 103.279C124.367 103.372 124.281 103.457 124.21 103.521C123.696 103.971 123.34 104.512 123.197 105.19C123.176 105.29 123.083 105.411 122.99 105.454C122.513 105.675 122.142 106.01 121.871 106.452C121.536 106.987 121.229 107.536 120.901 108.078C120.816 108.227 120.702 108.37 120.58 108.491C120.53 108.541 120.402 108.57 120.338 108.541C120.281 108.513 120.259 108.399 120.231 108.32C120.224 108.306 120.231 108.277 120.238 108.263C120.552 107.678 120.217 107.243 119.867 106.844C119.325 106.224 118.741 105.625 118.199 105.004C117.921 104.691 117.685 104.341 117.414 103.985C117.942 103.814 118.42 103.692 118.876 103.514C120.103 103.036 121.122 102.252 122.099 101.389C123.097 100.505 124.117 99.6494 125.13 98.7795C125.158 98.7581 125.179 98.7367 125.208 98.7224C125.6 98.5228 125.843 98.259 125.978 97.8026C126.192 97.1038 126.812 96.8543 127.575 96.7402ZM119.746 127.095C119.661 127.444 119.596 127.729 119.504 128C119.439 128.228 119.34 128.449 119.268 128.678L119.261 128.7C119.171 128.986 119.076 129.283 119.347 129.519C119.646 129.776 120.024 129.868 120.388 129.683C120.645 129.555 120.88 129.348 121.079 129.127C121.386 128.785 121.636 128.399 121.935 128.057C122.099 127.872 122.292 127.701 122.498 127.579C122.883 127.358 123.197 127.501 123.29 127.936C123.354 128.25 123.368 128.571 123.397 128.891C123.418 129.17 123.525 129.355 123.825 129.455C124.723 129.769 125.607 130.118 126.399 130.667C127.461 131.401 128.053 132.407 128.181 133.69C128.189 133.74 128.196 133.79 128.21 133.854C128.602 133.933 128.952 133.861 129.287 133.669C129.344 133.633 129.408 133.569 129.422 133.512C129.6 132.728 129.722 131.943 129.515 131.145C129.358 130.517 129.001 130.018 128.474 129.647C127.682 129.091 126.919 128.506 126.256 127.801C125.672 127.18 125.607 126.781 126.078 126.068C126.299 125.733 126.57 125.419 126.734 125.055C126.948 124.57 127.076 124.05 127.262 123.479C127.661 123.444 128.16 123.508 128.595 123.75C129.337 124.164 130.042 124.627 130.763 125.077C131.062 125.262 131.34 125.49 131.64 125.669C132.075 125.932 132.488 125.861 132.888 125.569C133.116 125.405 133.187 125.212 133.037 124.991C132.852 124.72 132.638 124.478 132.41 124.242C132.103 123.922 131.768 123.622 131.44 123.308C131.404 123.28 131.362 123.244 131.319 123.237C131.026 123.18 130.734 123.137 130.442 123.08C130.392 123.073 130.328 123.03 130.306 122.987C130.107 122.588 129.729 122.417 129.358 122.225C129.03 122.053 128.695 121.882 128.46 121.454C129.051 121.055 129.629 120.613 130.242 120.249C131.761 119.351 133.444 118.809 135.091 118.196C136.26 117.768 137.408 117.297 138.563 116.848C138.656 116.812 138.749 116.763 138.834 116.72C138.67 115.978 137.979 115.458 137.137 115.394C136.296 115.329 135.49 115.522 134.692 115.736C133.8 115.978 132.916 116.228 131.918 116.499C132.039 116.014 132.117 115.615 132.239 115.23C132.552 114.217 133.151 113.376 133.9 112.641C134.777 111.793 135.668 110.951 136.56 110.117C136.652 110.031 136.781 109.974 136.902 109.917C138.007 109.404 139.077 108.841 139.982 108.013C140.146 107.864 140.317 107.714 140.496 107.557C140.061 107.172 139.604 107.079 139.141 107.229C138.756 107.35 138.357 107.521 138.029 107.757C136.938 108.555 135.847 109.368 134.791 110.217C133.344 111.379 132.403 112.926 131.576 114.552C131.262 115.172 131.026 115.843 130.741 116.484C130.663 116.663 130.542 116.834 130.406 116.976C130.1 117.297 129.779 117.59 129.465 117.903C129.422 117.946 129.422 118.018 129.401 118.075C129.337 118.281 129.287 118.495 129.208 118.695C129.051 119.08 128.98 119.465 129.151 119.9C128.952 119.993 128.752 120.085 128.559 120.171C128.26 120.306 127.946 120.42 127.654 120.57C127.219 120.791 127.083 121.084 127.19 121.568C127.24 121.811 127.34 122.039 127.418 122.274C127.483 122.467 127.411 122.56 127.219 122.553C126.695 122.528 126.285 122.785 125.874 123.043C125.805 123.087 125.735 123.13 125.664 123.173C125.6 123.216 125.543 123.38 125.572 123.458C125.622 123.622 125.721 123.772 125.821 123.914C125.985 124.15 126.021 124.371 125.828 124.62C125.301 125.298 124.787 125.989 124.267 126.667C123.126 126.175 122.042 126.096 121.044 126.895C120.58 126.624 120.103 126.353 119.589 126.054C119.618 125.59 119.924 125.191 120.259 124.806C120.53 124.499 120.851 124.193 121.008 123.829C121.251 123.273 121.693 122.959 122.128 122.61C122.192 122.553 122.256 122.481 122.292 122.403C122.998 120.87 123.889 119.465 125.073 118.246C126.106 117.169 127.112 116.064 128.117 114.966C128.531 114.516 128.944 114.096 129.536 113.889C129.829 113.782 130.071 113.618 130.142 113.276C130.164 113.169 130.271 113.069 130.363 112.991C130.969 112.434 131.576 111.885 132.182 111.336C132.253 111.272 132.324 111.208 132.374 111.13C132.702 110.652 133.101 110.288 133.665 110.081C134.143 109.903 134.192 109.568 133.857 109.176C133.693 108.983 133.472 108.833 133.258 108.691C133.101 108.591 132.923 108.527 132.759 108.441C132.346 108.224 132.168 108.157 132.107 108.032C132.061 107.941 132.078 107.819 132.109 107.587C132.122 107.489 132.138 107.372 132.153 107.229C132.232 106.459 132.567 105.775 133.002 105.147C133.479 104.455 133.864 103.742 134.114 102.922C134.371 102.088 134.806 101.311 135.148 100.498C135.376 99.9561 135.49 99.3856 135.49 98.7795C135.49 97.7028 135.754 97.5175 136.759 97.8811C137.144 98.0237 137.53 98.1948 137.879 98.4088C140.531 100.027 143.163 101.667 145.587 103.628C146.1 104.042 146.592 104.491 147.12 104.89C147.469 105.154 147.698 105.489 147.805 105.896C148.097 107.029 148.361 108.163 148.653 109.297C148.86 110.074 149.124 110.844 149.295 111.629C149.423 112.22 149.544 112.841 149.516 113.44C149.438 114.879 149.627 116.293 149.817 117.708C149.852 117.975 149.888 118.242 149.922 118.51C150.065 119.608 150.136 120.713 150.193 121.818C150.207 122.116 150.109 122.42 150.015 122.713C150.008 122.736 150.001 122.758 149.994 122.781C149.979 122.826 149.964 122.871 149.949 122.916C149.865 123.161 149.782 123.402 149.872 123.679C149.893 123.742 149.825 123.839 149.775 123.91L149.773 123.914C149.573 124.214 149.345 124.499 149.166 124.813C148.682 125.676 148.218 126.553 147.755 127.43C147.541 127.829 147.277 128.171 146.728 128.271C146.863 127.758 146.713 127.302 146.563 126.848C146.523 126.728 146.484 126.609 146.45 126.489C146.407 126.325 146.421 126.096 146.5 125.947C146.635 125.676 146.535 125.519 146.336 125.369C145.777 124.959 145.779 124.955 146.134 124.372L146.143 124.357C146.578 123.643 147.013 122.923 147.441 122.203C147.469 122.16 147.484 122.103 147.498 122.061C147.234 121.861 146.999 121.854 146.714 122.075C146.407 122.31 146.122 122.567 145.836 122.816C145.801 122.845 145.787 122.902 145.772 122.952C145.644 123.508 145.337 123.957 144.952 124.357C144.261 125.07 143.769 125.897 143.434 126.824C142.956 128.136 142.214 129.262 141.166 130.189C140.018 131.209 139.234 132.507 138.421 133.783C138.3 133.983 138.178 134.197 138.121 134.425C138 134.917 137.693 135.266 137.358 135.608C136.681 136.307 135.982 136.985 135.326 137.705C135.005 138.061 134.756 138.489 134.456 138.874C134.385 138.967 134.257 139.01 134.15 139.074C133.879 139.238 133.565 139.352 133.351 139.573C132.781 140.158 132.125 140.614 131.433 141.042C130.385 141.691 129.344 142.354 128.303 143.003C128.26 143.031 128.217 143.067 128.167 143.067C127.026 143.145 125.964 143.552 124.894 143.901C123.404 144.386 121.942 144.422 120.509 143.744C119.447 143.245 118.277 143.145 117.158 142.86C114.783 142.254 112.523 141.348 110.284 140.364C109.813 140.158 109.336 139.951 108.865 139.737C107.888 139.302 106.904 138.938 105.863 138.674C104.494 138.325 103.182 137.762 101.834 137.32C101.228 137.12 100.594 137.013 99.9733 136.842C99.8235 136.799 99.6595 136.714 99.574 136.6C99.0891 135.951 98.9394 135.188 98.9251 134.403C98.9037 132.664 99.3601 131.023 100.052 129.448C100.266 128.956 100.401 128.471 100.487 127.943C100.572 127.408 100.722 126.866 100.936 126.367C101.349 125.39 101.799 124.421 102.284 123.472C102.911 122.253 103.539 121.968 104.872 122.253C105.642 122.417 106.398 122.631 107.154 122.859C107.432 122.945 107.696 123.109 107.945 123.266C108.202 123.43 108.43 123.658 108.694 123.815C108.738 123.84 108.783 123.867 108.829 123.895C109.078 124.044 109.345 124.203 109.592 124.185C109.951 124.159 110.226 124.297 110.504 124.437C110.595 124.483 110.688 124.53 110.783 124.57C111.646 124.934 112.537 125.241 113.407 125.597C113.792 125.761 114.156 125.997 114.527 126.196C114.634 126.253 114.748 126.31 114.862 126.339C116.445 126.702 118.035 127.045 119.746 127.095ZM120.074 101.703C119.675 102.316 119.09 102.609 118.398 102.701C117.685 102.801 116.979 102.708 116.288 102.502C116.209 102.48 116.117 102.338 116.117 102.245C116.117 101.439 116.623 100.862 117.429 100.726C118.156 100.605 118.819 100.712 119.404 101.204C119.603 101.375 119.832 101.525 120.074 101.703ZM113.956 102.737C114.519 102.316 115.068 102.088 115.71 102.145C115.974 102.159 116.052 102.288 115.974 102.53C115.924 102.687 115.86 102.837 115.803 103.001C115.19 103.022 114.591 103.036 113.956 102.737ZM110.398 102.209C111.061 102.281 111.817 102.487 112.494 102.922C112.829 103.136 112.872 103.307 112.63 103.607C110.919 105.717 110.177 108.242 109.542 110.816C109.086 112.691 108.587 114.566 108.052 116.42C107.76 117.447 107.289 118.41 106.626 119.265C106.562 119.344 106.533 119.465 106.512 119.572C106.469 119.779 106.462 119.986 106.412 120.185C106.234 120.891 105.813 121.148 105.129 120.877C104.808 120.748 104.473 120.513 104.287 120.235C103.973 119.772 103.731 119.244 103.531 118.716C103.168 117.761 102.883 116.77 102.505 115.821C102.312 115.322 102.034 114.844 101.72 114.417C101.264 113.789 101.278 113.197 101.635 112.541C102.041 111.8 102.44 111.051 102.79 110.281C103.011 109.796 103.182 109.276 103.31 108.755C103.417 108.341 103.603 107.992 103.881 107.678C104.508 106.972 105.121 106.259 105.749 105.561C105.892 105.397 106.07 105.247 106.255 105.147C107.025 104.726 107.46 104.028 107.824 103.265C107.852 103.208 107.917 103.158 107.974 103.129C108.344 102.944 108.722 102.78 109.079 102.58C109.564 102.309 109.856 102.195 110.398 102.209ZM126.099 102.751C126.442 103.143 126.563 103.6 126.648 104.07C126.734 104.612 126.791 105.161 126.898 105.696C127.041 106.395 127.454 106.844 128.181 106.951C129.914 107.201 131.24 108.242 132.659 109.29C132.032 109.953 131.447 110.623 130.805 111.229C129.536 112.42 128.231 113.568 126.948 114.745C126.741 114.93 126.527 115.123 126.37 115.351C125.878 116.078 125.187 116.57 124.445 116.955C123.932 117.219 123.625 117.632 123.254 118.018C122.712 118.581 122.099 119.059 121.536 119.593C121.201 119.914 120.88 120.256 120.602 120.62C120.274 121.055 119.931 121.462 119.454 121.74C118.919 122.053 118.57 122.503 118.413 123.109C118.291 123.594 118.013 123.964 117.578 124.221C117.286 124.385 117.094 124.62 117.029 124.97C116.972 125.283 116.708 125.505 116.395 125.476C115.846 125.419 115.339 125.241 115.019 124.749C114.976 124.677 114.94 124.556 114.969 124.499C115.347 123.807 115.425 123.037 115.568 122.289C115.689 121.675 115.91 121.112 116.209 120.556C116.851 119.351 117.45 118.124 118.07 116.905C118.605 115.843 119.197 114.809 119.996 113.91C120.038 113.86 120.088 113.811 120.095 113.754C120.153 113.34 120.195 112.919 120.252 112.499C120.267 112.392 120.288 112.27 120.352 112.192C121.557 110.766 122.42 109.126 123.29 107.486C124.096 105.967 124.866 104.427 125.878 103.029C125.942 102.944 126.014 102.858 126.099 102.751ZM112.423 106.723C112.231 105.653 113.108 104.306 114.106 104.192C114.37 104.164 114.65 104.247 114.928 104.328C115.011 104.353 115.093 104.377 115.175 104.398C115.232 104.413 115.297 104.577 115.29 104.662C115.254 105.09 114.99 105.382 114.598 105.489C114.084 105.625 113.721 105.924 113.4 106.316C113.157 106.616 112.829 106.744 112.423 106.723ZM84.9922 106.48C85.7337 106.666 86.3826 106.944 86.568 107.828C87.1064 107.627 87.4631 107.907 87.8257 108.191C87.9 108.25 87.9747 108.308 88.0511 108.363C88.6358 108.776 89.2419 109.154 89.8338 109.554C89.9692 109.646 90.0619 109.789 90.176 109.896C90.283 109.989 90.3828 110.103 90.504 110.16C90.7322 110.267 90.9889 110.331 91.2242 110.438C91.488 110.559 91.6663 110.744 91.6092 111.129C91.2171 110.987 90.8392 110.866 90.4755 110.716C89.299 110.224 88.2864 109.468 87.2882 108.691C86.6037 108.156 85.9191 107.621 85.2275 107.094C85.0278 106.937 84.9422 106.758 84.9922 106.48ZM111.746 108.135C111.947 108.135 112.149 108.132 112.351 108.13C112.858 108.124 113.368 108.118 113.878 108.149C115.61 108.235 117.343 108.413 119.04 108.819C119.361 108.898 119.682 108.997 120.003 109.062C120.202 109.104 120.267 109.219 120.295 109.397C120.395 110.081 120.288 110.723 119.903 111.301C119.675 111.643 119.432 111.964 119.19 112.285C118.783 112.827 118.448 113.397 118.37 114.096C118.363 114.174 118.313 114.253 118.263 114.31C117.528 115.172 116.951 116.142 116.423 117.14C115.946 118.039 115.489 118.944 115.011 119.836C114.94 119.964 114.798 120.085 114.662 120.142C113.657 120.542 112.608 120.542 111.575 120.335C110.519 120.128 109.485 119.829 108.444 119.558C108.352 119.529 108.245 119.387 108.223 119.287C108.145 118.873 108.245 118.467 108.48 118.132C109.179 117.133 109.457 116 109.685 114.837C109.763 114.445 110.006 114.082 110.134 113.696C110.205 113.468 110.27 113.197 110.206 112.983C109.984 112.228 110.184 111.55 110.512 110.887C110.776 110.359 111.068 109.846 111.311 109.311C111.489 108.919 111.61 108.498 111.746 108.135ZM92.0086 119.387C92.579 119.351 93.0068 119.586 93.3847 119.928C93.6343 120.142 93.8696 120.378 94.1192 120.599C94.49 120.927 94.9035 121.098 95.4811 120.97C95.3884 120.77 95.3456 120.542 95.2101 120.406C94.9321 120.128 94.6112 119.879 94.2903 119.636C93.7627 119.237 93.1922 118.895 92.686 118.474C92.2795 118.132 92.0514 117.661 92.0014 117.119C91.9801 116.884 92.0728 116.777 92.2795 116.713C92.6575 116.584 93.0211 116.641 93.3634 116.812C93.8197 117.041 94.2475 117.312 94.7039 117.533C94.982 117.661 95.2814 117.761 95.5809 117.818C95.8804 117.875 96.1514 117.747 96.3867 117.511C96.2369 117.205 95.9945 116.969 95.695 116.834C95.1959 116.599 94.6825 116.42 94.1762 116.206C93.7769 116.042 93.3633 115.893 92.9926 115.679C92.5006 115.393 92.2153 114.951 92.144 114.281C92.6147 114.36 93.0639 114.402 93.4988 114.509C94.2333 114.695 94.9463 114.951 95.6808 115.108C95.9413 115.162 96.2187 115.149 96.4968 115.135C96.6221 115.129 96.7475 115.123 96.8716 115.123L96.9357 115.037C96.7004 114.823 96.4936 114.545 96.2155 114.417C95.6237 114.146 95.0105 113.939 94.3973 113.718C93.67 113.454 92.9355 113.212 92.2082 112.941C92.0086 112.862 91.8232 112.734 91.8517 112.456C91.8873 112.092 92.3294 111.757 92.6859 111.857C94.7466 112.42 96.843 112.884 98.8253 113.718C99.4314 113.975 100.016 114.295 100.601 114.602C100.693 114.652 100.793 114.745 100.822 114.837C101.307 116.435 101.784 118.025 102.262 119.622C102.604 120.77 102.262 121.718 101.399 122.51C101.107 122.781 100.822 123.044 100.793 123.479C100.786 123.558 100.715 123.686 100.651 123.7C100.358 123.758 100.394 123.993 100.337 124.192C100.223 124.585 100.087 124.977 99.9376 125.362C99.7308 125.89 99.5027 126.403 99.2674 126.952C98.7469 126.931 98.3048 126.688 98.0053 126.232C97.7486 125.832 97.5561 125.398 97.3065 124.991C97.114 124.684 96.8644 124.421 96.6647 124.121C96.5863 124.014 96.5293 123.857 96.5435 123.736C96.5721 123.444 96.458 123.273 96.2155 123.137C95.4597 122.716 94.6967 122.296 93.9409 121.868C93.0924 121.39 92.4007 120.756 92.1084 119.779C92.0727 119.665 92.0513 119.543 92.0086 119.387ZM114.006 122.146C114.006 122.795 113.764 123.323 113.379 123.779C113.314 123.857 113.15 123.886 113.029 123.886C112.045 123.865 111.147 123.544 110.277 123.116C109.528 122.745 108.758 122.417 108.002 122.068C107.945 122.039 107.867 121.989 107.852 121.939C107.767 121.59 107.66 121.24 107.639 120.884C107.617 120.52 107.795 120.413 108.145 120.52C109.935 121.069 111.774 121.397 113.621 121.697C113.935 121.747 114.056 121.868 114.006 122.146ZM111.318 143.951C111.739 144.008 112.116 144.044 112.48 144.079C113.065 144.172 113.657 144.279 114.241 144.393C114.32 144.407 114.412 144.464 114.455 144.529C114.812 145.049 115.332 145.27 115.931 145.334C116.345 145.377 116.758 145.398 117.172 145.406C117.885 145.427 118.584 145.498 119.29 145.634C119.655 145.704 120.038 145.684 120.421 145.666C120.74 145.65 121.06 145.634 121.372 145.669C122.313 145.784 123.24 146.019 124.181 146.176C124.602 146.247 125.03 146.261 125.45 146.29C125.907 146.325 126.306 146.19 126.691 145.912C126.934 145.741 127.29 145.662 127.59 145.662C128.16 145.669 128.645 145.498 129.108 145.199C129.615 144.878 130.078 144.486 130.698 144.379C130.777 144.365 130.855 144.286 130.927 144.229C132.731 142.732 134.528 141.227 136.146 139.53C136.638 139.017 137.18 138.553 137.722 138.09C138.692 137.255 139.469 136.264 140.075 135.145C141.309 132.87 142.728 130.731 144.375 128.735C144.524 128.556 144.653 128.35 144.788 128.157C144.931 127.957 145.109 127.836 145.387 127.915C145.672 128.899 145.687 129.911 145.573 130.924C145.451 131.979 145.302 133.041 145.173 134.097C144.995 135.558 145.23 136.985 145.573 138.404C145.979 140.079 146.393 141.762 146.507 143.495C146.585 144.593 146.656 145.684 146.706 146.782C146.763 148.151 146.992 149.491 147.248 150.839C147.448 151.866 147.405 152.935 147.469 153.991C147.483 154.183 147.487 154.377 147.491 154.572C147.501 155.007 147.511 155.441 147.619 155.845C147.933 157.014 148.018 158.183 147.926 159.381C147.819 160.793 147.976 162.177 148.297 163.546C148.703 165.285 148.796 167.039 148.674 168.822C148.567 170.377 148.546 171.938 148.489 173.535C148.061 173.564 147.555 173.585 147.056 173.628C144.71 173.828 142.435 174.384 140.182 175.004C138.927 175.347 137.701 175.796 136.453 176.159C135.747 176.366 135.012 176.466 134.314 176.68C132.652 177.186 131.005 177.728 129.351 178.27C126.962 179.054 124.523 179.418 122.006 179.254C121.455 179.216 120.897 179.26 120.339 179.305C120.061 179.327 119.782 179.349 119.504 179.361C119.418 179.361 119.283 179.311 119.247 179.24C118.32 177.336 117.386 175.432 116.495 173.507C116.017 172.473 115.689 171.382 115.511 170.248C115.454 169.877 115.304 169.606 114.947 169.464C114.655 169.343 114.519 169.164 114.505 168.808C114.491 168.466 114.377 168.073 114.184 167.788C113.322 166.49 112.986 165.022 112.737 163.531C112.373 161.357 112.052 159.175 111.739 156.993C111.432 154.903 111.154 152.807 111.154 150.689C111.154 149.071 111.268 147.445 111.318 145.819C111.327 145.431 111.324 145.038 111.321 144.623C111.32 144.406 111.318 144.183 111.318 143.951ZM98.811 139.038C99.8021 139.231 100.758 139.409 101.713 139.594C101.456 140.771 101.064 141.855 100.608 142.924C99.959 144.429 99.2745 145.926 98.6969 147.466C98.2691 148.607 97.9981 149.805 97.6487 150.975C97.5774 151.217 97.4277 151.438 97.3421 151.68C97.2209 152.008 97.0426 152.351 97.0284 152.693C96.9999 153.392 96.8073 154.033 96.5578 154.675C96.244 155.481 95.9089 156.287 95.6665 157.121C95.5238 157.606 95.5595 158.141 95.4953 158.654C95.4739 158.875 95.4312 159.11 95.3385 159.31C95.0604 159.895 95.0033 160.501 95.0033 161.128C95.0033 161.266 95.0025 161.404 95.0018 161.542C95.0002 161.818 94.9985 162.093 95.0033 162.369C95.0176 163.595 94.6254 164.637 93.6985 165.471C93.6759 165.491 93.6547 165.509 93.6346 165.527C93.2857 165.836 93.2803 165.841 92.8285 165.578C92.8214 165.571 92.8071 165.571 92.8 165.563C91.7162 165.071 91.3454 164.173 91.324 163.054C91.3026 161.699 91.5379 160.372 91.8445 159.06C91.9443 158.64 92.0299 158.226 92.3151 157.863C92.3936 157.764 92.3979 157.609 92.4021 157.452C92.4041 157.381 92.4061 157.309 92.415 157.242C92.4577 156.928 92.415 156.579 92.5362 156.308C93.399 154.426 93.9052 152.429 94.4543 150.447C94.5185 150.233 94.5969 150.012 94.6967 149.812C95.5167 148.165 96.244 146.489 96.6362 144.685C96.6505 144.614 96.6719 144.536 96.7146 144.486C97.606 143.473 97.9411 142.204 98.2905 140.949C98.4616 140.336 98.6256 139.716 98.811 139.038ZM143.248 155.039C142.884 154.704 142.827 154.262 142.742 153.827C142.663 153.406 142.556 152.985 142.428 152.572C142.343 152.308 142.136 152.158 141.836 152.165C141.558 152.172 141.366 152.016 141.237 151.787C141.152 151.631 141.088 151.467 141.023 151.303C140.795 150.704 140.453 150.504 139.84 150.639C139.369 150.746 138.913 150.939 138.435 151.024C136.774 151.324 135.112 151.645 133.444 151.859C131.504 152.115 129.55 152.294 127.604 152.451C126.984 152.5 126.363 152.502 125.741 152.504C125.276 152.506 124.809 152.508 124.345 152.529C123.96 152.543 123.575 152.679 123.197 152.764C122.941 152.821 122.883 152.992 122.919 153.249C123.211 155.324 123.433 157.421 123.796 159.488C124.317 162.476 124.93 165.442 125.522 168.416C125.543 168.515 125.693 168.665 125.786 168.672C126.199 168.694 126.613 168.694 127.019 168.644C127.64 168.573 128.246 168.458 128.859 168.359C129.058 168.323 129.272 168.302 129.451 168.223C131.055 167.496 132.702 166.875 134.421 166.483C135.119 166.326 135.783 166.098 136.431 165.792C136.959 165.542 137.572 165.471 138.15 165.321C138.243 165.3 138.342 165.3 138.421 165.264C139.604 164.708 140.881 164.473 142.143 164.194C142.435 164.13 142.72 163.988 142.977 163.831C143.277 163.645 143.555 163.503 143.961 163.71C143.961 163.496 143.962 163.29 143.963 163.087C143.964 162.693 143.966 162.316 143.961 161.934C143.954 161.385 143.933 160.843 143.911 160.294C143.911 160.209 143.876 160.094 143.819 160.03C142.635 158.811 142.364 156.529 143.248 155.039ZM142.314 162.74C142.314 162.74 142.314 162.74 142.314 162.74ZM142.314 162.74C141.244 163.025 140.196 163.303 139.141 163.588C138.292 163.817 137.444 164.045 136.603 164.301C136.275 164.401 135.961 164.587 135.633 164.701C134.57 165.064 133.508 165.4 132.453 165.763C131.369 166.141 130.306 166.576 129.208 166.911C128.424 167.154 127.604 167.282 126.791 167.439C126.442 167.503 126.278 167.375 126.156 166.997C126.071 166.726 126.049 166.426 126.028 166.141C125.921 164.701 125.7 163.289 125.208 161.92C125.128 161.698 125.125 161.449 125.123 161.199C125.122 161.048 125.12 160.896 125.101 160.75C124.93 159.495 124.716 158.255 124.566 157C124.459 156.059 124.424 155.103 124.338 154.155C124.31 153.862 124.459 153.763 124.709 153.748C124.722 153.748 124.734 153.747 124.747 153.746C124.871 153.739 125.005 153.731 125.108 153.777C125.711 154.032 126.337 154.017 126.965 154.001C127.021 154.001 127.077 153.999 127.133 153.998C129.536 153.955 131.889 153.577 134.242 153.114C136.146 152.743 138.064 152.401 139.975 152.037C140.253 151.98 140.439 152.037 140.517 152.322C140.745 153.149 141.038 153.962 141.173 154.804C141.58 157.363 141.929 159.938 142.3 162.512C142.314 162.583 142.307 162.654 142.314 162.74Z" fill="url(#paint0_linear_1_4)"/>
<path d="M56.3598 198.335L57.2952 199.301L53.7414 206.884L52.6526 205.759L53.5486 203.879L51.647 201.915L49.7466 202.757L48.6578 201.632L56.3598 198.335ZM54.1252 202.937L55.5838 200.022L52.5917 201.353L54.1252 202.937Z" fill="url(#paint1_linear_1_4)"/>
<path d="M58.4581 211.18L63.3952 205.106L65.9702 207.199C66.2497 207.426 66.4602 207.694 66.6019 208.004C66.7435 208.313 66.8222 208.633 66.838 208.963C66.8538 209.293 66.8117 209.619 66.7116 209.94C66.6116 210.261 66.4619 210.544 66.2625 210.79C66.0539 211.046 65.8055 211.259 65.5172 211.427C65.2289 211.595 64.9256 211.706 64.6072 211.76C64.2889 211.814 63.9664 211.802 63.6398 211.726C63.3133 211.65 63.0103 211.499 62.7308 211.272L61.2936 210.103L59.6387 212.139L58.4581 211.18ZM62.135 209.068L63.5038 210.181C63.7205 210.357 63.9734 210.416 64.2626 210.357C64.5517 210.299 64.8191 210.118 65.0648 209.816C65.19 209.662 65.2796 209.505 65.3337 209.345C65.3877 209.186 65.4124 209.033 65.4078 208.887C65.4032 208.741 65.3684 208.607 65.3034 208.483C65.2383 208.359 65.1545 208.255 65.0518 208.172L63.7344 207.101L62.135 209.068Z" fill="url(#paint2_linear_1_4)"/>
<path d="M73.5715 220.493L72.8511 221.616L68.2766 218.681L72.5034 212.093L76.9944 214.974L76.2741 216.097L73.0636 214.037L72.0456 215.624L74.82 217.404L74.1532 218.443L71.3788 216.663L70.2775 218.38L73.5715 220.493Z" fill="url(#paint3_linear_1_4)"/>
<path d="M82.2511 221.069L80.0594 225.581L78.6909 224.916L82.111 217.875L83.1721 218.391L84.5964 224.794L86.8363 220.183L88.2048 220.848L84.7895 227.879L83.6788 227.339L82.2511 221.069Z" fill="url(#paint4_linear_1_4)"/>
<path d="M96.0651 223.874L97.3386 224.306L97.638 232.675L96.1558 232.172L96.0948 230.09L93.5062 229.21L92.1998 230.827L90.7176 230.323L96.0651 223.874ZM96.178 228.989L96.1449 225.729L94.0904 228.279L96.178 228.989Z" fill="url(#paint5_linear_1_4)"/>
<path d="M109.443 229.632C109.404 229.571 109.327 229.483 109.212 229.368C109.098 229.253 108.955 229.134 108.782 229.01C108.61 228.886 108.418 228.772 108.208 228.666C107.998 228.561 107.777 228.483 107.548 228.433C107.138 228.345 106.816 228.355 106.583 228.462C106.349 228.57 106.203 228.76 106.144 229.033C106.11 229.191 106.119 229.33 106.172 229.451C106.225 229.571 106.315 229.686 106.441 229.796C106.568 229.906 106.734 230.017 106.939 230.129C107.144 230.241 107.383 230.364 107.655 230.498C108.007 230.679 108.323 230.86 108.603 231.041C108.884 231.222 109.112 231.421 109.286 231.639C109.461 231.857 109.58 232.099 109.643 232.365C109.706 232.63 109.7 232.939 109.624 233.291C109.535 233.701 109.382 234.034 109.165 234.292C108.948 234.549 108.689 234.74 108.388 234.863C108.087 234.986 107.757 235.052 107.398 235.061C107.039 235.07 106.672 235.034 106.299 234.953C105.724 234.829 105.175 234.621 104.652 234.327C104.129 234.034 103.678 233.681 103.301 233.269L104.235 232.129C104.286 232.207 104.385 232.317 104.531 232.457C104.677 232.598 104.854 232.745 105.062 232.899C105.269 233.053 105.505 233.196 105.77 233.328C106.034 233.46 106.314 233.558 106.609 233.622C107.428 233.798 107.894 233.625 108.007 233.1C108.043 232.935 108.026 232.785 107.957 232.65C107.889 232.514 107.778 232.385 107.624 232.262C107.47 232.138 107.279 232.014 107.05 231.89C106.821 231.765 106.565 231.627 106.282 231.476C105.937 231.296 105.643 231.118 105.399 230.942C105.155 230.765 104.961 230.576 104.816 230.376C104.672 230.176 104.577 229.96 104.533 229.729C104.489 229.497 104.499 229.234 104.562 228.94C104.646 228.552 104.792 228.222 105.001 227.952C105.21 227.681 105.464 227.472 105.762 227.326C106.06 227.18 106.39 227.091 106.75 227.06C107.11 227.029 107.484 227.055 107.872 227.139C108.411 227.255 108.888 227.446 109.304 227.713C109.721 227.979 110.073 228.264 110.361 228.567L109.443 229.632Z" fill="url(#paint6_linear_1_4)"/>
<path d="M128.486 231.504C128.436 231.451 128.344 231.379 128.21 231.287C128.077 231.196 127.913 231.105 127.721 231.015C127.528 230.926 127.319 230.849 127.093 230.784C126.867 230.72 126.636 230.684 126.401 230.678C125.982 230.667 125.668 230.737 125.458 230.886C125.248 231.035 125.14 231.249 125.133 231.528C125.129 231.69 125.164 231.825 125.238 231.933C125.313 232.042 125.422 232.138 125.567 232.223C125.712 232.307 125.895 232.386 126.118 232.458C126.34 232.529 126.597 232.606 126.889 232.687C127.269 232.8 127.613 232.919 127.922 233.044C128.232 233.17 128.492 233.324 128.705 233.506C128.917 233.687 129.078 233.903 129.19 234.152C129.301 234.401 129.352 234.706 129.343 235.066C129.332 235.485 129.244 235.841 129.078 236.134C128.913 236.428 128.693 236.663 128.42 236.84C128.147 237.017 127.835 237.143 127.484 237.218C127.133 237.294 126.766 237.327 126.384 237.317C125.797 237.302 125.218 237.199 124.65 237.007C124.081 236.816 123.574 236.553 123.126 236.218L123.832 234.924C123.897 234.992 124.014 235.081 124.184 235.192C124.354 235.303 124.555 235.415 124.787 235.528C125.02 235.64 125.278 235.737 125.563 235.818C125.847 235.899 126.14 235.943 126.442 235.951C127.279 235.972 127.705 235.715 127.719 235.179C127.723 235.01 127.679 234.865 127.586 234.745C127.494 234.625 127.361 234.519 127.187 234.426C127.013 234.333 126.802 234.247 126.554 234.167C126.306 234.087 126.029 233.999 125.722 233.903C125.35 233.791 125.028 233.67 124.756 233.542C124.483 233.414 124.257 233.264 124.078 233.094C123.898 232.924 123.766 232.73 123.679 232.511C123.593 232.292 123.554 232.031 123.562 231.73C123.572 231.333 123.654 230.983 123.809 230.678C123.964 230.373 124.175 230.121 124.441 229.922C124.707 229.723 125.014 229.575 125.362 229.477C125.71 229.379 126.082 229.336 126.479 229.346C127.03 229.36 127.535 229.459 127.993 229.644C128.452 229.828 128.851 230.043 129.19 230.287L128.486 231.504Z" fill="url(#paint7_linear_1_4)"/>
<path d="M137.32 229.074L138.659 228.954L142.32 236.486L140.761 236.625L139.862 234.746L137.139 234.989L136.599 236.996L135.04 237.136L137.32 229.074ZM139.493 233.706L138.143 230.738L137.297 233.901L139.493 233.706Z" fill="url(#paint8_linear_1_4)"/>
<path d="M148.623 235.521L147.012 227.861L148.501 227.548L149.837 233.902L153.742 233.081L154.017 234.386L148.623 235.521Z" fill="url(#paint9_linear_1_4)"/>
<path d="M164.616 230.321C164.217 231.109 163.622 231.632 162.833 231.891C162.344 232.051 161.853 232.104 161.359 232.049C160.866 231.994 160.404 231.847 159.974 231.609C159.544 231.371 159.161 231.05 158.823 230.646C158.486 230.242 158.23 229.772 158.053 229.234C157.886 228.724 157.822 228.213 157.859 227.702C157.897 227.191 158.022 226.713 158.236 226.268C158.45 225.823 158.744 225.429 159.119 225.085C159.494 224.742 159.94 224.486 160.457 224.317C161.155 224.088 161.802 224.039 162.398 224.168C162.993 224.298 163.498 224.57 163.912 224.983L163.093 226.133C162.784 225.825 162.427 225.628 162.024 225.543C161.622 225.459 161.221 225.482 160.823 225.612C160.509 225.715 160.242 225.876 160.024 226.094C159.805 226.313 159.641 226.568 159.532 226.859C159.422 227.15 159.366 227.462 159.363 227.796C159.36 228.129 159.414 228.463 159.523 228.799C159.638 229.148 159.801 229.456 160.012 229.723C160.223 229.991 160.463 230.204 160.732 230.363C161.001 230.523 161.291 230.623 161.602 230.664C161.913 230.705 162.226 230.675 162.54 230.572C163.26 230.336 163.798 229.785 164.156 228.917L163.984 228.393L162.486 228.884L162.14 227.826L164.832 226.944L166.085 230.768L164.89 231.159L164.616 230.321Z" fill="url(#paint10_linear_1_4)"/>
<path d="M171.104 220.172L172.321 219.599L178.346 225.415L176.93 226.081L175.441 224.625L172.967 225.789L173.149 227.86L171.732 228.526L171.104 220.172ZM174.736 223.775L172.449 221.452L172.741 224.714L174.736 223.775Z" fill="url(#paint11_linear_1_4)"/>
<path d="M183.952 222.331L179.771 215.713L182.176 214.194C182.716 213.853 183.245 213.64 183.762 213.557C184.279 213.474 184.768 213.495 185.23 213.621C185.692 213.747 186.118 213.966 186.508 214.281C186.898 214.595 187.236 214.979 187.522 215.433C187.84 215.936 188.052 216.439 188.157 216.943C188.261 217.446 188.262 217.932 188.159 218.402C188.056 218.871 187.854 219.312 187.553 219.723C187.252 220.135 186.853 220.498 186.356 220.812L183.952 222.331ZM186.227 216.251C186.027 215.934 185.799 215.67 185.543 215.458C185.287 215.245 185.014 215.096 184.725 215.009C184.435 214.923 184.135 214.904 183.823 214.954C183.51 215.003 183.199 215.126 182.888 215.322L181.77 216.029L184.525 220.391L185.644 219.684C185.961 219.484 186.207 219.25 186.381 218.983C186.556 218.716 186.664 218.433 186.705 218.133C186.746 217.834 186.726 217.523 186.644 217.201C186.562 216.878 186.423 216.562 186.227 216.251Z" fill="url(#paint12_linear_1_4)"/>
<path d="M197.681 212.724C197.238 213.087 196.765 213.331 196.262 213.453C195.759 213.576 195.26 213.6 194.766 213.525C194.272 213.45 193.803 213.286 193.358 213.034C192.913 212.781 192.532 212.461 192.215 212.075C191.884 211.671 191.642 211.223 191.49 210.73C191.337 210.238 191.277 209.741 191.308 209.24C191.339 208.739 191.468 208.255 191.694 207.79C191.92 207.324 192.246 206.916 192.672 206.566C193.11 206.207 193.582 205.969 194.09 205.852C194.598 205.735 195.098 205.717 195.592 205.797C196.085 205.877 196.554 206.043 196.999 206.296C197.444 206.549 197.823 206.865 198.135 207.246C198.466 207.65 198.708 208.095 198.861 208.583C199.014 209.071 199.075 209.562 199.045 210.058C199.014 210.554 198.886 211.035 198.66 211.5C198.433 211.966 198.107 212.374 197.681 212.724ZM193.408 211.096C193.622 211.357 193.87 211.577 194.15 211.757C194.43 211.936 194.722 212.057 195.026 212.121C195.331 212.185 195.639 212.184 195.951 212.118C196.263 212.053 196.558 211.905 196.837 211.677C197.121 211.444 197.324 211.179 197.448 210.883C197.571 210.587 197.628 210.281 197.62 209.964C197.612 209.648 197.548 209.337 197.426 209.033C197.305 208.728 197.142 208.451 196.937 208.201C196.722 207.94 196.474 207.721 196.191 207.544C195.908 207.367 195.614 207.247 195.31 207.183C195.005 207.119 194.698 207.121 194.389 207.19C194.079 207.258 193.788 207.405 193.515 207.628C193.231 207.862 193.026 208.127 192.9 208.426C192.774 208.724 192.715 209.029 192.724 209.34C192.732 209.652 192.797 209.96 192.918 210.264C193.04 210.569 193.203 210.846 193.408 211.096Z" fill="url(#paint13_linear_1_4)"/>
<path d="M204.529 198.306C204.456 198.307 204.341 198.327 204.183 198.364C204.026 198.401 203.849 198.461 203.653 198.543C203.457 198.625 203.259 198.728 203.059 198.852C202.859 198.976 202.678 199.123 202.515 199.293C202.226 199.595 202.065 199.874 202.034 200.13C202.004 200.385 202.089 200.609 202.291 200.802C202.407 200.914 202.531 200.979 202.661 200.997C202.792 201.015 202.937 200.999 203.097 200.949C203.257 200.898 203.438 200.815 203.641 200.699C203.844 200.583 204.074 200.444 204.33 200.283C204.669 200.078 204.989 199.903 205.29 199.759C205.591 199.615 205.88 199.525 206.157 199.491C206.434 199.456 206.703 199.481 206.962 199.567C207.221 199.652 207.481 199.819 207.741 200.069C208.043 200.358 208.247 200.663 208.353 200.983C208.459 201.303 208.485 201.624 208.432 201.944C208.38 202.265 208.263 202.581 208.083 202.892C207.902 203.202 207.68 203.495 207.415 203.771C207.009 204.196 206.543 204.554 206.02 204.846C205.496 205.139 204.959 205.337 204.411 205.443L203.928 204.05C204.022 204.048 204.167 204.021 204.363 203.97C204.56 203.919 204.778 203.845 205.017 203.749C205.257 203.653 205.502 203.527 205.754 203.371C206.005 203.215 206.235 203.028 206.443 202.81C207.023 202.205 207.119 201.717 206.731 201.346C206.609 201.229 206.473 201.164 206.322 201.152C206.171 201.14 206.002 201.167 205.817 201.233C205.631 201.299 205.425 201.397 205.199 201.527C204.973 201.657 204.722 201.802 204.444 201.964C204.111 202.164 203.805 202.321 203.527 202.437C203.249 202.552 202.986 202.618 202.74 202.637C202.493 202.655 202.26 202.622 202.04 202.539C201.82 202.455 201.601 202.309 201.383 202.101C201.096 201.826 200.893 201.529 200.771 201.21C200.65 200.89 200.605 200.565 200.637 200.234C200.669 199.903 200.766 199.576 200.928 199.253C201.09 198.93 201.308 198.625 201.582 198.338C201.964 197.94 202.377 197.634 202.822 197.419C203.267 197.204 203.694 197.053 204.102 196.966L204.529 198.306Z" fill="url(#paint14_linear_1_4)"/>
<path fill-rule="evenodd" clip-rule="evenodd" d="M78.7797 10.1476C63.3434 16.6765 49.6779 25.8884 37.7832 37.7831C25.8884 49.6779 16.6765 63.3434 10.1476 78.7797C3.38251 94.774 1.52588e-05 111.514 1.52588e-05 129C1.52588e-05 146.485 3.38247 163.226 10.1475 179.22C16.6767 194.656 25.8886 208.322 37.7832 220.217C49.678 232.111 63.3435 241.323 78.7796 247.851C94.7737 254.617 111.514 258 129 258C146.485 258 163.226 254.617 179.22 247.851C194.656 241.323 208.322 232.111 220.217 220.217C232.111 208.321 241.323 194.656 247.851 179.22C254.617 163.226 258 146.486 258 129C258 111.514 254.617 94.774 247.852 78.7797C241.323 63.3434 232.111 49.6778 220.216 37.7831C208.322 25.8884 194.656 16.6765 179.22 10.1476C163.225 3.38251 146.485 0 129 0C111.514 0 94.774 3.38252 78.7797 10.1476ZM101.512 23.0544C101.703 23.0084 101.855 22.9064 101.968 22.7485L104.133 19.7546C104.355 19.4527 104.434 19.1587 104.372 18.8727C104.332 18.7058 104.256 18.5589 104.144 18.4322C104.031 18.3054 103.901 18.2043 103.752 18.129C103.603 18.0536 103.447 18.0028 103.283 17.9766C103.12 17.9505 102.964 17.9553 102.816 17.991C102.618 18.0386 102.456 18.1478 102.33 18.3188C102.204 18.4897 102.097 18.6904 102.009 18.9211L100.805 22.0369C100.771 22.1368 100.739 22.2311 100.712 22.3196C100.684 22.408 100.681 22.4986 100.703 22.5914C100.751 22.7893 100.857 22.9256 101.023 23.0004C101.188 23.0752 101.351 23.0932 101.512 23.0544ZM117.546 22.8703C117.53 22.5717 117.576 22.3129 117.686 22.0937C117.795 21.8745 117.946 21.6929 118.139 21.5488C118.332 21.4047 118.56 21.2938 118.824 21.2161C119.087 21.1384 119.368 21.0916 119.667 21.0756L122.62 20.9183C123.052 20.8953 123.497 20.8796 123.956 20.8711C124.414 20.8626 124.864 20.8832 125.306 20.9329C125.748 20.9826 126.167 21.0686 126.562 21.1908C126.957 21.3132 127.308 21.4951 127.613 21.7368C127.919 21.9785 128.169 22.2901 128.361 22.6716C128.553 23.0532 128.664 23.5233 128.694 24.0824C128.714 24.4571 128.67 24.821 128.561 25.174C128.452 25.5269 128.288 25.8493 128.068 26.1414C127.848 26.4333 127.581 26.6849 127.267 26.8958C126.954 27.1068 126.602 27.2578 126.212 27.3486L126.214 27.3867C126.694 27.4312 127.131 27.5401 127.526 27.7134C127.92 27.8867 128.259 28.1122 128.541 28.3902C128.824 28.6682 129.048 28.9939 129.214 29.3672C129.381 29.7405 129.476 30.1463 129.499 30.5846C129.525 31.0673 129.454 31.5441 129.288 32.0148C129.122 32.4854 128.852 32.9091 128.477 33.2858C128.102 33.6625 127.617 33.9766 127.022 34.228C126.427 34.4795 125.714 34.6274 124.882 34.6717L120.404 34.9102C120.042 34.9295 119.722 34.9179 119.446 34.8752C119.17 34.8326 118.934 34.729 118.737 34.5643C118.54 34.3996 118.386 34.1594 118.273 33.8437C118.161 33.528 118.091 33.1065 118.063 32.5793L117.546 22.8703ZM137.56 24.978C137.153 25.8192 136.875 26.7591 136.726 27.798C136.569 28.8872 136.573 29.8937 136.739 30.8172C136.905 31.7408 137.23 32.557 137.713 33.266C138.195 33.9749 138.833 34.5598 139.624 35.0207C140.416 35.4816 141.356 35.7905 142.445 35.9472C143.56 36.1075 144.564 36.0721 145.459 35.8409C146.353 35.6097 147.129 35.2186 147.787 34.6673C148.445 34.116 148.978 33.4201 149.389 32.5794C149.799 31.7387 150.079 30.7927 150.231 29.7413C150.385 28.6709 150.38 27.6741 150.218 26.7509C150.055 25.8278 149.735 25.0092 149.26 24.2948C148.784 23.5805 148.15 22.9896 147.356 22.5219C146.562 22.0542 145.614 21.7411 144.512 21.5826C143.379 21.4195 142.365 21.4567 141.469 21.6942C140.574 21.9317 139.8 22.328 139.149 22.8834C138.497 23.4386 137.967 24.1369 137.56 24.978ZM102.939 37.9027C103.183 37.9812 103.464 37.9826 103.779 37.9067L110.449 36.3023C110.616 36.2622 110.765 36.1936 110.895 36.0969C111.026 36 111.133 35.8841 111.219 35.7491C111.304 35.6141 111.36 35.4665 111.387 35.3063C111.414 35.1461 111.407 34.9825 111.367 34.8155C111.327 34.6485 111.258 34.4997 111.162 34.3693C111.065 34.2389 110.947 34.1314 110.809 34.0468C110.671 33.9622 110.522 33.9065 110.362 33.8796C110.202 33.8527 110.038 33.8594 109.871 33.8996L104.861 35.1046L104.08 31.8577L108.441 30.8088C108.62 30.7657 108.781 30.6943 108.924 30.5945C109.067 30.4947 109.184 30.3765 109.275 30.24C109.367 30.1035 109.429 29.9545 109.462 29.7928C109.495 29.6311 109.492 29.4668 109.452 29.2998C109.411 29.1328 109.34 28.9847 109.237 28.8558C109.134 28.7268 109.01 28.6208 108.866 28.5378C108.722 28.4547 108.563 28.4012 108.391 28.3773C108.218 28.3534 108.042 28.363 107.863 28.4062L103.503 29.4549L102.78 26.4493L107.557 25.3C107.737 25.2569 107.898 25.1854 108.04 25.0857C108.183 24.9859 108.3 24.8677 108.392 24.7312C108.483 24.5947 108.546 24.4456 108.579 24.2839C108.612 24.1222 108.608 23.9579 108.568 23.791C108.528 23.624 108.456 23.4744 108.352 23.3423C108.248 23.2103 108.125 23.1042 107.981 23.0243C107.838 22.9444 107.679 22.8909 107.506 22.8639C107.333 22.8369 107.156 22.8449 106.977 22.8881L101.021 24.3206C100.539 24.4367 100.17 24.5908 99.9155 24.7829C99.6608 24.975 99.4852 25.1971 99.3889 25.4494C99.2925 25.7015 99.2587 25.9828 99.2876 26.2931C99.3165 26.6035 99.3733 26.9349 99.4581 27.2875L101.585 36.1283C101.647 36.3881 101.738 36.6412 101.856 36.8875C101.974 37.1338 102.123 37.345 102.302 37.5209C102.482 37.6969 102.694 37.8241 102.939 37.9027ZM120.933 23.1485L121.135 26.9311L122.497 26.8586C122.917 26.8361 123.304 26.7869 123.66 26.7106C124.016 26.6343 124.318 26.5163 124.568 26.3565C124.817 26.1967 125.008 25.9875 125.141 25.7287C125.274 25.4701 125.33 25.1469 125.309 24.7595C125.289 24.372 125.201 24.063 125.045 23.8324C124.889 23.6018 124.684 23.4265 124.429 23.3062C124.174 23.1861 123.881 23.1109 123.548 23.0809C123.215 23.0509 122.864 23.0456 122.496 23.0652L120.933 23.1485ZM140.637 31.9708C140.254 31.1028 140.175 29.888 140.399 28.3266C140.508 27.5711 140.666 26.9078 140.874 26.3368C141.081 25.7657 141.34 25.2969 141.65 24.9301C141.959 24.5634 142.323 24.3025 142.741 24.1472C143.158 23.9921 143.631 23.9525 144.16 24.0286C144.695 24.1056 145.142 24.2774 145.498 24.5441C145.855 24.8107 146.131 25.1636 146.324 25.6028C146.518 26.0419 146.634 26.5647 146.672 27.1711C146.71 27.7775 146.675 28.4584 146.566 29.214C146.341 30.7817 145.916 31.9255 145.292 32.6454C144.668 33.3654 143.836 33.6506 142.797 33.5011C141.74 33.349 141.019 32.8389 140.637 31.9708ZM171.874 33.2379C170.84 34.3381 169.918 35.3179 169.107 36.1772C168.759 36.5471 168.422 36.9075 168.095 37.2583C167.768 37.6091 167.474 37.9217 167.215 38.1962C166.955 38.4707 166.744 38.6927 166.583 38.8622L166.353 39.111C166.112 39.3652 165.868 39.6017 165.623 39.8205C165.378 40.0393 165.127 40.2165 164.87 40.3522C164.613 40.4879 164.349 40.5734 164.08 40.6088C163.81 40.6442 163.53 40.6056 163.24 40.4929C162.973 40.3895 162.756 40.2527 162.59 40.0826C162.424 39.9126 162.292 39.7013 162.196 39.449C162.099 39.1966 162.031 38.9008 161.992 38.5617C161.953 38.2225 161.932 37.8373 161.929 37.4062L161.816 29.3807L158.526 37.8681C158.457 38.046 158.357 38.2018 158.227 38.3355C158.097 38.4692 157.95 38.571 157.787 38.6407C157.623 38.7103 157.448 38.7482 157.262 38.7544C157.075 38.7606 156.893 38.7292 156.715 38.6601C156.537 38.5912 156.381 38.4915 156.247 38.3613C156.114 38.231 156.011 38.0856 155.941 37.9252C155.87 37.7647 155.831 37.5912 155.825 37.4046C155.819 37.218 155.851 37.0358 155.92 36.8579L159.102 28.6462C159.302 28.1302 159.51 27.6705 159.729 27.2671C159.946 26.8637 160.194 26.5453 160.472 26.312C160.75 26.0786 161.068 25.9374 161.424 25.888C161.781 25.8387 162.2 25.9072 162.68 26.0933C163.025 26.2266 163.302 26.4026 163.515 26.6212C163.726 26.8398 163.892 27.1242 164.013 27.4744C164.133 27.8245 164.217 28.2509 164.264 28.7536C164.311 29.2563 164.343 29.8555 164.361 30.5511L164.512 37.2101L164.583 37.2377L169.209 32.4302C169.62 32.0029 170.008 31.6243 170.37 31.2943C170.734 30.9643 171.086 30.7019 171.428 30.5068C171.769 30.3118 172.107 30.19 172.439 30.1416C172.772 30.093 173.113 30.1367 173.463 30.2723C173.843 30.4194 174.152 30.6039 174.39 30.8257C174.627 31.0477 174.789 31.3182 174.873 31.6375C174.957 31.9566 174.968 32.3307 174.904 32.7596C174.84 33.1884 174.7 33.6817 174.484 34.2393L171.178 42.7711C171.109 42.9491 171.009 43.1049 170.879 43.2386C170.748 43.3723 170.602 43.474 170.438 43.5437C170.275 43.6134 170.099 43.6513 169.913 43.6574C169.726 43.6636 169.544 43.6322 169.366 43.5632C169.188 43.4943 169.032 43.3946 168.899 43.2644C168.765 43.1341 168.662 42.9887 168.592 42.8282C168.521 42.6678 168.482 42.4942 168.476 42.3077C168.47 42.1211 168.502 41.9388 168.57 41.7609L171.874 33.2379ZM121.443 32.7146L123.025 32.6303C123.533 32.6032 123.979 32.554 124.364 32.4825C124.749 32.4111 125.067 32.2921 125.319 32.1259C125.572 31.9596 125.757 31.7379 125.877 31.4608C125.995 31.1837 126.044 30.8292 126.021 30.3973C125.999 29.9971 125.906 29.6741 125.74 29.4281C125.574 29.1821 125.347 28.992 125.059 28.8576C124.772 28.7232 124.43 28.6379 124.033 28.6017C123.636 28.5656 123.196 28.5603 122.713 28.586L121.227 28.6652L121.443 32.7146ZM85.3769 36.5473L86.766 30.6221C86.8703 30.171 86.9975 29.7863 87.1475 29.468C87.2975 29.1497 87.5322 28.919 87.8514 28.7757C88.0313 28.695 88.2233 28.649 88.4274 28.6376C88.6314 28.6263 88.8304 28.6503 89.0244 28.7097C89.2184 28.769 89.3953 28.8605 89.5552 28.9839C89.7152 29.1074 89.8382 29.2649 89.9241 29.4564C89.9762 29.5725 90.0041 29.7046 90.0078 29.8528C90.0115 30.001 90.0022 30.1551 89.9798 30.315C89.9574 30.4749 89.9235 30.6401 89.8778 30.8105C89.8323 30.9808 89.7878 31.142 89.7444 31.2938L88.5044 35.4999L93.2406 37.9452C93.3939 38.0228 93.5505 38.1077 93.7103 38.1998C93.8702 38.2919 94.0214 38.3879 94.1638 38.4879C94.3062 38.5878 94.4329 38.6913 94.5437 38.7985C94.6544 38.9056 94.7372 39.0202 94.7918 39.1421C94.8778 39.3336 94.9142 39.5351 94.901 39.7467C94.8879 39.9583 94.8381 40.1619 94.7515 40.3576C94.665 40.5532 94.5472 40.7298 94.3983 40.8873C94.2493 41.0447 94.0848 41.1638 93.9049 41.2445C93.696 41.3383 93.4808 41.379 93.2592 41.3669C93.0376 41.3547 92.8145 41.3119 92.5898 41.2384C92.3651 41.1649 92.1455 41.0717 91.931 40.9588C91.7166 40.8459 91.5106 40.7326 91.3132 40.6189L85.8103 37.5137L87.8155 41.937C87.9222 42.1749 87.9798 42.4158 87.9881 42.6596C87.9963 42.9034 87.961 43.1354 87.882 43.3555C87.803 43.5757 87.6858 43.773 87.5305 43.9472C87.375 44.1215 87.1842 44.2594 86.9579 44.361C86.7315 44.4625 86.5015 44.5134 86.2681 44.5135C86.0347 44.5137 85.8108 44.4694 85.5968 44.3807C85.3827 44.292 85.1873 44.1635 85.0107 43.9952C84.8342 43.8269 84.6925 43.6238 84.5858 43.3858L80.4344 34.1317C80.3277 33.8938 80.2702 33.653 80.2619 33.4092C80.2536 33.1654 80.2875 32.934 80.3636 32.7151C80.4398 32.4962 80.5554 32.2996 80.7108 32.1254C80.8662 31.9511 81.0571 31.8132 81.2834 31.7117C81.4982 31.6154 81.7237 31.5664 81.9601 31.5649C82.1965 31.5636 82.4232 31.6065 82.6402 31.6939C82.8572 31.7812 83.0553 31.9085 83.2349 32.0755C83.4143 32.2425 83.5575 32.4449 83.6642 32.6828L85.3769 36.5473ZM188.766 54.701C188.945 54.6159 189.103 54.4939 189.24 54.335L194.287 48.4946L193.536 58.0605C193.52 58.3233 193.515 58.5774 193.521 58.8227C193.527 59.068 193.553 59.2984 193.598 59.5138C193.644 59.7293 193.712 59.9272 193.804 60.1077C193.896 60.2881 194.016 60.4428 194.166 60.5717C194.445 60.8129 194.717 60.951 194.981 60.9859C195.245 61.0207 195.502 60.9863 195.751 60.8824C196.001 60.7785 196.245 60.6175 196.483 60.3994C196.723 60.1813 196.957 59.94 197.185 59.6753L203.536 52.326C203.674 52.1672 203.772 51.9932 203.829 51.804C203.888 51.6149 203.91 51.4261 203.897 51.2377C203.883 51.0493 203.834 50.8657 203.749 50.687C203.663 50.5083 203.541 50.3504 203.382 50.2131C203.224 50.0759 203.049 49.978 202.86 49.9197C202.672 49.8613 202.482 49.839 202.294 49.8527C202.106 49.8664 201.923 49.9169 201.747 50.0042C201.571 50.0914 201.414 50.2145 201.277 50.3733L196.292 56.1415L197.023 46.6852C197.041 46.4314 197.046 46.1818 197.04 45.9365C197.033 45.6912 197.006 45.4598 196.959 45.2423C196.912 45.0247 196.84 44.8225 196.745 44.6355C196.651 44.4485 196.526 44.2884 196.373 44.1553C196.189 43.9973 195.99 43.8821 195.776 43.8098C195.561 43.7375 195.341 43.713 195.114 43.7363C194.888 43.7595 194.661 43.8324 194.433 43.955C194.206 44.0776 193.99 44.2568 193.785 44.4926L186.973 52.3761C186.836 52.5349 186.737 52.7078 186.676 52.8949C186.616 53.082 186.592 53.2697 186.606 53.4582C186.62 53.6466 186.669 53.8301 186.754 54.0088C186.839 54.1875 186.961 54.3455 187.12 54.4828C187.278 54.62 187.453 54.7178 187.642 54.7762C187.831 54.8346 188.021 54.8579 188.212 54.8463C188.402 54.8346 188.587 54.7862 188.766 54.701ZM63.5652 60.4866C63.8182 60.4424 64.0667 60.3132 64.3106 60.0993L69.4682 55.5757C69.5974 55.4625 69.6972 55.3327 69.7677 55.1863C69.8381 55.0399 69.8796 54.8871 69.8923 54.7279C69.905 54.5687 69.886 54.412 69.8352 54.2577C69.7845 54.1033 69.7025 53.9616 69.5892 53.8325C69.476 53.7034 69.3462 53.6036 69.1997 53.5332C69.0534 53.4627 68.8994 53.4222 68.7378 53.4116C68.5762 53.401 68.4183 53.4211 68.264 53.4719C68.1096 53.5226 67.968 53.6046 67.8388 53.7178L63.9652 57.1152L61.7632 54.6046L65.1346 51.6476C65.2733 51.5259 65.3826 51.3877 65.4627 51.233C65.5427 51.0782 65.5914 50.9191 65.6088 50.7557C65.6264 50.5923 65.6121 50.4314 65.5661 50.2729C65.5202 50.1144 65.4406 49.9705 65.3273 49.8414C65.214 49.7123 65.0818 49.6146 64.9306 49.5484C64.7795 49.4821 64.6208 49.4458 64.4544 49.4394C64.288 49.433 64.1229 49.4594 63.959 49.5185C63.7951 49.5777 63.6439 49.668 63.5052 49.7897L60.1337 52.7467L58.0952 50.4225L61.7895 47.1824C61.9282 47.0607 62.0375 46.9225 62.1175 46.7678C62.1975 46.613 62.2463 46.4539 62.2637 46.2905C62.2812 46.1271 62.267 45.9662 62.221 45.8077C62.175 45.6492 62.0954 45.5053 61.9822 45.3762C61.8689 45.2471 61.7357 45.1482 61.5824 45.0796C61.4291 45.0109 61.2704 44.9746 61.1061 44.9706C60.9418 44.9666 60.7767 44.993 60.6107 45.0497C60.4447 45.1065 60.2924 45.1957 60.1537 45.3173L55.5484 49.3564C55.1754 49.6836 54.9208 49.9915 54.7847 50.2801C54.6486 50.5686 54.5966 50.847 54.6286 51.115C54.6606 51.383 54.7616 51.6477 54.9316 51.909C55.1015 52.1703 55.3061 52.4373 55.5451 52.7098L61.5409 59.5461C61.717 59.7469 61.9147 59.9289 62.1339 60.092C62.3532 60.2551 62.5833 60.3727 62.8242 60.4449C63.0651 60.517 63.3121 60.5309 63.5652 60.4866ZM129 49.2718C151.016 49.2718 169.808 57.0557 185.376 72.6236C200.944 88.1915 208.727 106.984 208.727 129C208.727 151.015 200.943 169.807 185.375 185.375C169.808 200.943 151.016 208.727 129 208.727C106.984 208.727 88.1916 200.943 72.6235 185.375C57.0557 169.808 49.2718 151.016 49.2718 129V128.999C49.2721 106.983 57.056 88.1912 72.6236 72.6236C88.1915 57.0558 106.984 49.2718 129 49.2718ZM45.5096 71.4606C44.5961 70.7495 43.8837 69.9793 43.3724 69.1501C42.8612 68.3209 42.5447 67.4719 42.4228 66.6032C42.301 65.7344 42.3672 64.865 42.6214 63.9948C42.8756 63.1246 43.3114 62.2929 43.9287 61.4999C44.4171 60.8724 44.8809 60.3569 45.3202 59.9532C45.7594 59.5494 46.166 59.2471 46.5398 59.0465C46.9137 58.8458 47.2521 58.7424 47.555 58.7364C47.858 58.7304 48.1174 58.8114 48.3332 58.9794C48.4788 59.0927 48.5821 59.2215 48.6431 59.3657C48.7041 59.51 48.7317 59.6584 48.7258 59.811C48.7198 59.9635 48.6863 60.1128 48.6252 60.2586C48.564 60.4045 48.4866 60.5377 48.3928 60.6582C48.3381 60.7284 48.2821 60.7977 48.2249 60.866C48.1677 60.9343 48.1037 60.9933 48.0328 61.043C47.8341 61.1946 47.6435 61.3385 47.461 61.4746C47.2785 61.6106 47.1043 61.7491 46.9382 61.8898C46.7722 62.0307 46.6125 62.1763 46.459 62.3268C46.3055 62.4774 46.1584 62.6431 46.0177 62.8238C45.7247 63.2002 45.5047 63.5993 45.3578 64.021C45.2109 64.4427 45.1848 64.8879 45.2795 65.3566C45.3741 65.8252 45.6105 66.3216 45.9885 66.8456C46.3665 67.3697 46.9345 67.9266 47.6925 68.5166C48.2747 68.9699 48.8429 69.3195 49.3971 69.5655C49.9513 69.8115 50.4791 69.9463 50.9807 69.9699C51.4822 69.9936 51.9534 69.9008 52.3942 69.6918C52.835 69.4828 53.2332 69.1499 53.5888 68.6931C53.7334 68.5074 53.8637 68.2985 53.9798 68.0665C54.096 67.8344 54.2047 67.5887 54.3061 67.3289C54.4075 67.0693 54.503 66.799 54.5926 66.5182C54.6823 66.2373 54.771 65.9576 54.8587 65.6794C54.8894 65.5985 54.9419 65.5103 55.0161 65.4149C55.1138 65.2895 55.2265 65.1938 55.3543 65.1281C55.4821 65.0622 55.6155 65.023 55.7544 65.0102C55.8933 64.9975 56.0324 65.013 56.1715 65.0569C56.3107 65.1007 56.4405 65.1696 56.561 65.2633C56.7567 65.4156 56.8864 65.6194 56.9499 65.8743C57.0134 66.1293 57.0283 66.413 56.9947 66.7254C56.9611 67.0379 56.8868 67.3689 56.7717 67.7187C56.6566 68.0684 56.5184 68.4143 56.3571 68.7561C56.1957 69.0981 56.019 69.4261 55.8269 69.7401C55.6349 70.0541 55.4431 70.3341 55.2517 70.58C54.6734 71.3229 54.0099 71.9189 53.2613 72.368C52.5127 72.8171 51.7151 73.091 50.8685 73.1896C50.0218 73.2883 49.1429 73.2006 48.2317 72.9266C47.3205 72.6526 46.4131 72.164 45.5096 71.4606ZM209.719 74.3883C209.655 74.4935 209.59 74.6043 209.522 74.7205C209.456 74.8366 209.386 74.9513 209.312 75.0643C209.239 75.1774 209.165 75.2812 209.089 75.3759C209.013 75.4705 208.938 75.5472 208.863 75.6055C208.677 75.7496 208.485 75.8431 208.29 75.8862C208.094 75.9293 207.901 75.9308 207.714 75.8911C207.527 75.8512 207.346 75.7751 207.175 75.6625C207.004 75.55 206.852 75.4083 206.72 75.2372C206.567 75.041 206.465 74.8511 206.411 74.6674C206.357 74.4838 206.348 74.2898 206.383 74.0857C206.419 73.8816 206.497 73.6581 206.618 73.4151C206.74 73.1722 206.901 72.8889 207.1 72.5652L207.779 71.4614L204.473 67.1906L203.275 67.6228C202.919 67.7542 202.606 67.8493 202.338 67.9081C202.07 67.9669 201.833 67.9854 201.627 67.9637C201.421 67.9421 201.236 67.8787 201.07 67.7737C200.904 67.6687 200.746 67.518 200.593 67.3218C200.461 67.1509 200.362 66.9681 200.296 66.7739C200.23 66.5796 200.202 66.3866 200.21 66.195C200.219 66.0034 200.268 65.8182 200.359 65.6392C200.45 65.4604 200.588 65.2989 200.775 65.1549C200.85 65.0965 200.943 65.0426 201.054 64.9932C201.164 64.9438 201.283 64.8978 201.411 64.8551C201.539 64.8125 201.667 64.7733 201.797 64.7377C201.926 64.702 202.05 64.6667 202.167 64.6319L209.223 62.416C209.885 62.2101 210.48 62.0411 211.009 61.909C211.538 61.777 212.019 61.7102 212.453 61.7087C212.886 61.7072 213.277 61.7888 213.625 61.9533C213.974 62.1179 214.298 62.3939 214.598 62.7813C214.879 63.1434 215.064 63.4946 215.154 63.8349C215.244 64.1751 215.245 64.5448 215.156 64.9437C215.066 65.3426 214.89 65.7928 214.627 66.2943C214.363 66.7959 214.022 67.3895 213.603 68.0753L209.719 74.3883ZM212.52 64.3529L206.384 66.4479L208.976 69.7981L212.55 64.3906L212.52 64.3529ZM211.508 82.4057C211.482 82.6702 211.545 82.9565 211.696 83.2648L213.16 86.2452C213.662 87.2672 214.242 88.1376 214.9 88.8564C215.557 89.5751 216.285 90.1088 217.084 90.4573C217.882 90.8058 218.746 90.9536 219.677 90.9005C220.608 90.8474 221.595 90.5643 222.64 90.0512C224.781 88.9997 226.076 87.6271 226.523 85.9335C226.97 84.2397 226.621 82.2252 225.474 79.89L224.431 77.7659C224.231 77.3606 224.021 77.0405 223.8 76.8055C223.578 76.5707 223.337 76.4111 223.076 76.3267C222.814 76.2424 222.526 76.2318 222.21 76.2949C221.893 76.3581 221.544 76.4836 221.162 76.6714L213.11 80.625C212.836 80.7596 212.581 80.9135 212.343 81.0868C212.106 81.26 211.914 81.457 211.767 81.6779C211.621 81.8988 211.534 82.1414 211.508 82.4057ZM33.0119 87.9918C33.6811 88.6441 34.4847 89.2055 35.4229 89.6761C36.4065 90.1694 37.3627 90.4835 38.2914 90.6183C39.22 90.7532 40.0969 90.7038 40.9222 90.4702C41.7475 90.2364 42.504 89.817 43.1917 89.212C43.8795 88.6069 44.47 87.8126 44.9634 86.8289C45.4681 85.8224 45.7524 84.8585 45.8161 83.9369C45.8798 83.0153 45.7543 82.1552 45.4395 81.357C45.1248 80.5586 44.6335 79.8319 43.9658 79.1768C43.2981 78.5216 42.4895 77.956 41.5399 77.4798C40.5733 76.9949 39.6264 76.6837 38.6992 76.546C37.772 76.4083 36.8943 76.452 36.0663 76.6771C35.2382 76.9023 34.4767 77.3173 33.7819 77.9224C33.0869 78.5275 32.49 79.3276 31.991 80.3226C31.4777 81.346 31.1919 82.32 31.1339 83.2444C31.0758 84.1689 31.2071 85.0282 31.5276 85.8223C31.8481 86.6163 32.3428 87.3395 33.0119 87.9918ZM214.96 85.0634L214.385 83.89L222.966 79.6757L223.58 80.9261C224.188 82.1651 224.286 83.2582 223.873 84.2054C223.459 85.1526 222.53 85.9809 221.085 86.6903C220.309 87.0717 219.617 87.3205 219.012 87.4371C218.407 87.5537 217.85 87.5476 217.34 87.4188C216.83 87.2899 216.386 87.0279 216.008 86.6326C215.629 86.2373 215.28 85.7143 214.96 85.0634ZM40.6189 87.2865C39.6743 87.3749 38.497 87.0656 37.0869 86.3583C36.4046 86.0161 35.8254 85.6563 35.3494 85.2788C34.8733 84.9012 34.5105 84.5075 34.2606 84.0975C34.0108 83.6875 33.8783 83.26 33.8633 82.8147C33.8481 82.3696 33.9604 81.9082 34.1999 81.4305C34.4423 80.9472 34.7464 80.5785 35.1123 80.3243C35.4782 80.0702 35.9001 79.9207 36.378 79.8757C36.856 79.8308 37.3886 79.8862 37.9758 80.042C38.5631 80.1978 39.1979 80.4468 39.8802 80.789C41.296 81.4991 42.2466 82.264 42.732 83.0839C43.2175 83.9038 43.2249 84.7828 42.7544 85.721C42.2753 86.6762 41.5634 87.1981 40.6189 87.2865ZM36.3264 109.302C36.5208 109.121 36.6633 108.865 36.7537 108.533L37.628 105.33C37.9278 104.232 38.0689 103.196 38.0513 102.221C38.0335 101.247 37.8406 100.366 37.4726 99.576C37.1045 98.7865 36.554 98.1039 35.8211 97.528C35.0882 96.9521 34.1602 96.5109 33.0372 96.2045C30.736 95.5764 28.8574 95.7494 27.4014 96.7234C25.9453 97.6976 24.8749 99.4394 24.1898 101.949L23.5668 104.232C23.4478 104.668 23.3937 105.047 23.4046 105.37C23.4154 105.693 23.4909 105.972 23.6308 106.208C23.7708 106.444 23.9802 106.643 24.2591 106.805C24.5381 106.967 24.8831 107.104 25.2942 107.216L33.9468 109.577C34.2413 109.658 34.5349 109.712 34.8275 109.739C35.1202 109.766 35.3945 109.745 35.6505 109.676C35.9067 109.608 36.1319 109.483 36.3264 109.302ZM224.387 109.059C224.288 109.133 224.186 109.21 224.08 109.292C223.974 109.374 223.866 109.454 223.755 109.531C223.643 109.607 223.536 109.675 223.429 109.734C223.324 109.793 223.225 109.835 223.133 109.86C222.906 109.923 222.694 109.937 222.497 109.902C222.298 109.868 222.121 109.796 221.963 109.688C221.803 109.58 221.667 109.442 221.55 109.272C221.435 109.103 221.348 108.914 221.29 108.706C221.224 108.467 221.201 108.252 221.221 108.062C221.241 107.871 221.307 107.688 221.417 107.513C221.526 107.337 221.684 107.16 221.889 106.982C222.093 106.803 222.35 106.602 222.658 106.379L223.704 105.615L222.268 100.409L220.996 100.354C220.617 100.34 220.291 100.309 220.021 100.262C219.75 100.214 219.524 100.141 219.341 100.043C219.16 99.945 219.011 99.8159 218.898 99.6557C218.785 99.4957 218.696 99.2961 218.629 99.0569C218.572 98.8484 218.55 98.6418 218.562 98.437C218.575 98.2323 218.622 98.0429 218.703 97.8688C218.783 97.6947 218.9 97.5423 219.051 97.4113C219.204 97.2804 219.393 97.1835 219.619 97.121C219.712 97.0956 219.819 97.0811 219.939 97.0774C220.061 97.0737 220.188 97.0764 220.323 97.0855C220.457 97.0947 220.591 97.1072 220.724 97.1232C220.857 97.1394 220.984 97.1536 221.107 97.1661L228.477 97.7962C229.166 97.8568 229.781 97.9264 230.321 98.0052C230.86 98.084 231.33 98.205 231.732 98.3682C232.133 98.5313 232.464 98.7551 232.724 99.0398C232.984 99.3244 233.179 99.7028 233.309 100.175C233.43 100.616 233.469 101.012 233.423 101.361C233.378 101.71 233.238 102.052 233.004 102.387C232.77 102.722 232.435 103.072 232.001 103.436C231.567 103.8 231.026 104.219 230.379 104.695L224.387 109.059ZM35.4958 105.025L35.1516 106.286L25.9284 103.769L26.2952 102.425C26.6586 101.093 27.3087 100.209 28.2455 99.7726C29.1823 99.336 30.427 99.3295 31.9795 99.7533C32.8141 99.981 33.4969 100.251 34.028 100.565C34.559 100.878 34.9731 101.251 35.2701 101.685C35.5671 102.119 35.7266 102.609 35.7488 103.156C35.7711 103.702 35.6867 104.326 35.4958 105.025ZM230.79 100.84L224.318 100.447L225.444 104.531L230.803 100.886L230.79 100.84ZM12.5237 178.216C6.06103 162.936 2.74852 146.961 2.58618 130.29H46.7005C46.9996 152.463 55.0325 171.433 70.7992 187.201C86.8708 203.272 106.271 211.308 129 211.308C151.728 211.308 171.129 203.272 187.201 187.201C202.967 171.434 211 152.464 211.299 130.29H255.414C255.251 146.961 251.939 162.936 245.476 178.216C239.078 193.343 230.05 206.735 218.392 218.392C206.734 230.05 193.342 239.078 178.216 245.476C162.543 252.105 146.137 255.419 129 255.419C111.863 255.419 95.458 252.105 79.7847 245.476C64.6575 239.078 51.2651 230.05 39.6075 218.392C27.9499 206.735 18.922 193.343 12.5237 178.216Z" fill="url(#paint15_linear_1_4)"/>
<defs>
<linearGradient id="paint0_linear_1_4" x1="1.46881e-05" y1="129" x2="258" y2="129" gradientUnits="userSpaceOnUse">
<stop stop-color="#4568DC"/>
<stop offset="1" stop-color="#B06AB3"/>
</linearGradient>
<linearGradient id="paint1_linear_1_4" x1="2.515e-05" y1="129" x2="258" y2="129" gradientUnits="userSpaceOnUse">
<stop stop-color="#4568DC"/>
<stop offset="1" stop-color="#B06AB3"/>
</linearGradient>
<linearGradient id="paint2_linear_1_4" x1="-6.62805e-05" y1="129" x2="258" y2="129" gradientUnits="userSpaceOnUse">
<stop stop-color="#4568DC"/>
<stop offset="1" stop-color="#B06AB3"/>
</linearGradient>
<linearGradient id="paint3_linear_1_4" x1="-2.18277e-05" y1="129" x2="258" y2="129" gradientUnits="userSpaceOnUse">
<stop stop-color="#4568DC"/>
<stop offset="1" stop-color="#B06AB3"/>
</linearGradient>
<linearGradient id="paint4_linear_1_4" x1="-5.14853e-05" y1="129" x2="258" y2="129" gradientUnits="userSpaceOnUse">
<stop stop-color="#4568DC"/>
<stop offset="1" stop-color="#B06AB3"/>
</linearGradient>
<linearGradient id="paint5_linear_1_4" x1="2.66642e-06" y1="129" x2="258" y2="129" gradientUnits="userSpaceOnUse">
<stop stop-color="#4568DC"/>
<stop offset="1" stop-color="#B06AB3"/>
</linearGradient>
<linearGradient id="paint6_linear_1_4" x1="-0.00015939" y1="129" x2="258" y2="129" gradientUnits="userSpaceOnUse">
<stop stop-color="#4568DC"/>
<stop offset="1" stop-color="#B06AB3"/>
</linearGradient>
<linearGradient id="paint7_linear_1_4" x1="0.000413696" y1="129" x2="258" y2="129" gradientUnits="userSpaceOnUse">
<stop stop-color="#4568DC"/>
<stop offset="1" stop-color="#B06AB3"/>
</linearGradient>
<linearGradient id="paint8_linear_1_4" x1="-0.000251008" y1="129" x2="258" y2="129" gradientUnits="userSpaceOnUse">
<stop stop-color="#4568DC"/>
<stop offset="1" stop-color="#B06AB3"/>
</linearGradient>
<linearGradient id="paint9_linear_1_4" x1="0.000185027" y1="129" x2="258" y2="129" gradientUnits="userSpaceOnUse">
<stop stop-color="#4568DC"/>
<stop offset="1" stop-color="#B06AB3"/>
</linearGradient>
<linearGradient id="paint10_linear_1_4" x1="8.78148e-05" y1="129" x2="258" y2="129" gradientUnits="userSpaceOnUse">
<stop stop-color="#4568DC"/>
<stop offset="1" stop-color="#B06AB3"/>
</linearGradient>
<linearGradient id="paint11_linear_1_4" x1="-0.000288748" y1="129" x2="258" y2="129" gradientUnits="userSpaceOnUse">
<stop stop-color="#4568DC"/>
<stop offset="1" stop-color="#B06AB3"/>
</linearGradient>
<linearGradient id="paint12_linear_1_4" x1="9.00823e-05" y1="129" x2="258" y2="129" gradientUnits="userSpaceOnUse">
<stop stop-color="#4568DC"/>
<stop offset="1" stop-color="#B06AB3"/>
</linearGradient>
<linearGradient id="paint13_linear_1_4" x1="3.52907e-05" y1="129" x2="258" y2="129" gradientUnits="userSpaceOnUse">
<stop stop-color="#4568DC"/>
<stop offset="1" stop-color="#B06AB3"/>
</linearGradient>
<linearGradient id="paint14_linear_1_4" x1="0.000291008" y1="129" x2="258" y2="129" gradientUnits="userSpaceOnUse">
<stop stop-color="#4568DC"/>
<stop offset="1" stop-color="#B06AB3"/>
</linearGradient>
<linearGradient id="paint15_linear_1_4" x1="5.25879e-06" y1="129" x2="258" y2="129" gradientUnits="userSpaceOnUse">
<stop stop-color="#4568DC"/>
<stop offset="1" stop-color="#B06AB3"/>
</linearGradient>
</defs>
</svg>
