<svg xmlns="http://www.w3.org/2000/svg" width="1023" height="666" viewBox="0 0 1023 666" fill="none">
<g clip-path="url(#clip0_1_3)">
<path d="M1143.82 70.4883C1081.28 70.4883 1049.42 49.5723 1021.31 31.1182C995.928 14.4527 975.878 1.28894 933.035 1.28894C890.192 1.28894 870.141 14.4527 844.758 31.1182C816.652 49.5723 784.793 70.4883 722.242 70.4883C659.691 70.4883 627.836 49.5723 599.727 31.1182C574.347 14.4527 554.301 1.28894 511.458 1.28894C468.619 1.28894 448.573 14.4527 423.193 31.1182C395.087 49.5723 363.229 70.4883 300.678 70.4883C238.135 70.4883 206.285 49.5723 178.179 31.1182C152.804 14.4527 132.758 1.28894 89.9229 1.28894C47.0839 1.28894 27.038 14.4527 1.65834 31.1182C-26.4474 49.5723 -58.3061 70.4883 -120.853 70.4883C-183.404 70.4883 -215.263 49.5723 -243.373 31.1182C-268.752 14.4527 -288.798 1.28894 -331.641 1.28894C-345.644 1.28894 -357 -6.85429 -357 -16.9015C-357 -26.9456 -345.644 -35.0919 -331.641 -35.0919C-269.095 -35.0919 -237.236 -14.1759 -209.126 4.27823C-183.746 20.9437 -163.696 34.1075 -120.853 34.1075C-78.0139 34.1075 -57.968 20.9437 -32.5883 4.28126C-4.48263 -14.1759 27.3761 -35.0919 89.9229 -35.0919C152.466 -35.0919 184.32 -14.1729 212.426 4.28126C237.801 20.9467 257.843 34.1075 300.678 34.1075C343.521 34.1075 363.567 20.9437 388.946 4.28126C417.052 -14.1759 448.911 -35.0919 511.458 -35.0919C574.009 -35.0919 605.863 -14.1759 633.973 4.28126C659.353 20.9437 679.403 34.1075 722.242 34.1075C765.09 34.1075 785.135 20.9437 810.515 4.28126C838.625 -14.1759 870.484 -35.0919 933.035 -35.0919C995.586 -35.0919 1027.44 -14.1759 1055.55 4.28126C1080.93 20.9437 1100.98 34.1075 1143.82 34.1075C1186.68 34.1075 1206.73 20.9437 1232.11 4.27823C1260.22 -14.1759 1292.09 -35.0919 1354.64 -35.0919C1368.64 -35.0919 1380 -26.9456 1380 -16.9015C1380 -6.85429 1368.64 1.28894 1354.64 1.28894C1311.79 1.28894 1291.74 14.4527 1266.35 31.1182C1238.24 49.5723 1206.38 70.4883 1143.82 70.4883Z" fill="black"/>
<path d="M1143.82 228.138C1081.28 228.138 1049.42 207.222 1021.31 188.768C995.928 172.103 975.878 158.939 933.035 158.939C890.192 158.939 870.141 172.103 844.758 188.768C816.652 207.222 784.793 228.138 722.242 228.138C659.691 228.138 627.836 207.222 599.727 188.768C574.347 172.103 554.301 158.939 511.458 158.939C468.619 158.939 448.573 172.103 423.193 188.768C395.087 207.222 363.229 228.138 300.678 228.138C238.135 228.138 206.285 207.222 178.179 188.768C152.804 172.103 132.758 158.939 89.9229 158.939C47.0839 158.939 27.038 172.103 1.65834 188.768C-26.4474 207.222 -58.3061 228.138 -120.853 228.138C-183.404 228.138 -215.263 207.222 -243.373 188.768C-268.752 172.103 -288.798 158.939 -331.641 158.939C-345.644 158.939 -357 150.796 -357 140.749C-357 130.705 -345.644 122.558 -331.641 122.558C-269.095 122.558 -237.236 143.474 -209.126 161.928C-183.746 178.594 -163.696 191.758 -120.853 191.758C-78.0139 191.758 -57.968 178.594 -32.5883 161.931C-4.48263 143.474 27.3761 122.558 89.9229 122.558C152.466 122.558 184.32 143.477 212.426 161.931C237.801 178.597 257.843 191.758 300.678 191.758C343.521 191.758 363.567 178.594 388.946 161.931C417.052 143.474 448.911 122.558 511.458 122.558C574.009 122.558 605.863 143.474 633.973 161.931C659.353 178.594 679.403 191.758 722.242 191.758C765.09 191.758 785.135 178.594 810.515 161.931C838.625 143.474 870.484 122.558 933.035 122.558C995.586 122.558 1027.44 143.474 1055.55 161.931C1080.93 178.594 1100.98 191.758 1143.82 191.758C1186.68 191.758 1206.73 178.594 1232.11 161.928C1260.22 143.474 1292.09 122.558 1354.64 122.558C1368.64 122.558 1380 130.705 1380 140.749C1380 150.796 1368.64 158.939 1354.64 158.939C1311.79 158.939 1291.74 172.103 1266.35 188.768C1238.24 207.222 1206.38 228.138 1143.82 228.138Z" fill="black"/>
<path d="M1143.82 385.792C1081.28 385.792 1049.42 364.876 1021.31 346.421C995.928 329.756 975.878 316.592 933.035 316.592C890.192 316.592 870.141 329.756 844.758 346.418C816.652 364.876 784.793 385.792 722.242 385.792C659.691 385.792 627.836 364.876 599.727 346.418C574.347 329.756 554.301 316.592 511.458 316.592C468.619 316.592 448.573 329.756 423.193 346.418C395.087 364.876 363.229 385.792 300.678 385.792C238.135 385.792 206.285 364.876 178.179 346.418C152.804 329.756 132.758 316.592 89.9229 316.592C47.0839 316.592 27.038 329.756 1.65834 346.418C-26.4474 364.876 -58.3061 385.792 -120.853 385.792C-183.404 385.792 -215.263 364.876 -243.373 346.418C-268.752 329.756 -288.802 316.592 -331.641 316.592C-345.644 316.592 -357 308.446 -357 298.402C-357 288.355 -345.644 280.211 -331.641 280.211C-269.095 280.211 -237.236 301.127 -209.126 319.582C-183.746 336.247 -163.696 349.411 -120.853 349.411C-78.0139 349.411 -57.968 336.247 -32.5883 319.582C-4.48263 301.127 27.3761 280.211 89.9229 280.211C152.466 280.211 184.32 301.127 212.426 319.585C237.801 336.247 257.843 349.411 300.678 349.411C343.521 349.411 363.567 336.247 388.946 319.582C417.052 301.127 448.911 280.211 511.458 280.211C574.009 280.211 605.863 301.127 633.973 319.582C659.353 336.247 679.403 349.411 722.242 349.411C765.09 349.411 785.135 336.247 810.515 319.582C838.625 301.127 870.484 280.211 933.035 280.211C995.586 280.211 1027.44 301.127 1055.55 319.582C1080.93 336.247 1100.98 349.411 1143.82 349.411C1186.68 349.411 1206.73 336.247 1232.11 319.582C1260.22 301.127 1292.09 280.211 1354.64 280.211C1368.64 280.211 1380 288.355 1380 298.402C1380 308.446 1368.64 316.592 1354.64 316.592C1311.79 316.592 1291.74 329.756 1266.35 346.421C1238.24 364.876 1206.38 385.792 1143.82 385.792Z" fill="black"/>
<path d="M1143.82 543.442C1081.28 543.442 1049.42 522.526 1021.31 504.072C995.928 487.406 975.878 474.242 933.035 474.242C890.192 474.242 870.141 487.406 844.758 504.069C816.652 522.526 784.793 543.442 722.242 543.442C659.691 543.442 627.836 522.526 599.727 504.069C574.347 487.406 554.301 474.242 511.458 474.242C468.619 474.242 448.573 487.406 423.193 504.069C395.087 522.526 363.229 543.442 300.678 543.442C238.135 543.442 206.285 522.526 178.179 504.069C152.804 487.406 132.758 474.242 89.9229 474.242C47.0839 474.242 27.038 487.406 1.65834 504.069C-26.4474 522.526 -58.3061 543.442 -120.853 543.442C-183.404 543.442 -215.263 522.526 -243.373 504.069C-268.752 487.406 -288.802 474.242 -331.641 474.242C-345.644 474.242 -357 466.096 -357 456.052C-357 446.005 -345.644 437.862 -331.641 437.862C-269.095 437.862 -237.236 458.777 -209.126 477.232C-183.746 493.897 -163.696 507.061 -120.853 507.061C-78.0139 507.061 -57.968 493.897 -32.5883 477.232C-4.48263 458.777 27.3761 437.862 89.9229 437.862C152.466 437.862 184.32 458.777 212.426 477.235C237.801 493.897 257.843 507.061 300.678 507.061C343.521 507.061 363.567 493.897 388.946 477.232C417.052 458.777 448.911 437.862 511.458 437.862C574.009 437.862 605.863 458.777 633.973 477.232C659.353 493.897 679.403 507.061 722.242 507.061C765.09 507.061 785.135 493.897 810.515 477.232C838.625 458.777 870.484 437.862 933.035 437.862C995.586 437.862 1027.44 458.777 1055.55 477.232C1080.93 493.897 1100.98 507.061 1143.82 507.061C1186.68 507.061 1206.73 493.897 1232.11 477.232C1260.22 458.777 1292.09 437.862 1354.64 437.862C1368.64 437.862 1380 446.005 1380 456.052C1380 466.096 1368.64 474.242 1354.64 474.242C1311.79 474.242 1291.74 487.406 1266.35 504.072C1238.24 522.526 1206.38 543.442 1143.82 543.442Z" fill="black"/>
<path d="M1143.82 701.092C1081.28 701.092 1049.42 680.176 1021.31 661.722C995.928 645.056 975.878 631.893 933.035 631.893C890.192 631.893 870.141 645.056 844.758 661.719C816.652 680.176 784.793 701.092 722.242 701.092C659.691 701.092 627.836 680.176 599.727 661.719C574.347 645.056 554.301 631.893 511.458 631.893C468.619 631.893 448.573 645.056 423.193 661.719C395.087 680.176 363.229 701.092 300.678 701.092C238.135 701.092 206.285 680.176 178.179 661.719C152.804 645.056 132.758 631.893 89.9229 631.893C47.0839 631.893 27.038 645.056 1.65834 661.719C-26.4474 680.176 -58.3061 701.092 -120.853 701.092C-183.404 701.092 -215.263 680.176 -243.373 661.719C-268.752 645.056 -288.802 631.893 -331.641 631.893C-345.644 631.893 -357 623.746 -357 613.702C-357 603.652 -345.644 595.512 -331.641 595.512C-269.095 595.512 -237.236 616.428 -209.126 634.882C-183.746 651.547 -163.696 664.711 -120.853 664.711C-78.0139 664.711 -57.968 651.547 -32.5883 634.882C-4.48263 616.428 27.3761 595.512 89.9229 595.512C152.466 595.512 184.32 616.428 212.426 634.885C237.801 651.547 257.843 664.711 300.678 664.711C343.521 664.711 363.567 651.547 388.946 634.882C417.052 616.428 448.911 595.512 511.458 595.512C574.009 595.512 605.863 616.428 633.973 634.882C659.353 651.547 679.403 664.711 722.242 664.711C765.09 664.711 785.135 651.547 810.515 634.882C838.625 616.428 870.484 595.512 933.035 595.512C995.586 595.512 1027.44 616.428 1055.55 634.882C1080.93 651.547 1100.98 664.711 1143.82 664.711C1186.68 664.711 1206.73 651.547 1232.11 634.882C1260.22 616.428 1292.09 595.512 1354.64 595.512C1368.64 595.512 1380 603.652 1380 613.702C1380 623.746 1368.64 631.893 1354.64 631.893C1311.79 631.893 1291.74 645.056 1266.35 661.722C1238.24 680.176 1206.38 701.092 1143.82 701.092Z" fill="black"/>
</g>
<defs>
<clipPath id="clip0_1_3">
<rect width="1737" height="1246" fill="white" transform="translate(-357 -290)"/>
</clipPath>
</defs>
</svg>